<?xml version="1.0" encoding="utf-8"?>
<!-- Generator: Adobe Illustrator 19.0.0, SVG Export Plug-In . SVG Version: 6.00 Build 0)  -->
<svg version="1.0" id="Layer_1" xmlns="http://www.w3.org/2000/svg" xmlns:xlink="http://www.w3.org/1999/xlink" x="0px" y="0px"
	 viewBox="-297 370.9 100 100" style="enable-background:new -297 370.9 100 100;" xml:space="preserve">
<path d="M-247.7,390.1c-16.6,0-30.1,13.5-30.1,30.1c0,16.6,13.5,30.1,30.1,30.1s30.1-13.5,30.1-30.1
	C-217.6,403.7-231.1,390.1-247.7,390.1z M-247.7,447.4c-15,0-27.1-12.3-27.1-27.1c0-15,12.3-27.2,27.1-27.2s27.1,12.3,27.1,27.2
	C-220.6,435.3-232.7,447.4-247.7,447.4z M-246.2,432.6c0,0.8-0.7,1.6-1.6,1.6s-1.6-0.7-1.6-1.6s0.7-1.6,1.6-1.6
	S-246.2,431.6-246.2,432.6z M-249.3,424.8v-17.7c0-0.8,0.7-1.4,1.4-1.4c0.8,0,1.4,0.7,1.4,1.4v17.7c0,0.8-0.7,1.4-1.4,1.4
	C-248.7,426.3-249.3,425.6-249.3,424.8z"/>
</svg>
