<?xml version="1.0" encoding="utf-8"?>
<!-- Generator: Adobe Illustrator 19.0.0, SVG Export Plug-In . SVG Version: 6.00 Build 0)  -->
<svg version="1.0" id="Layer_1" xmlns="http://www.w3.org/2000/svg" xmlns:xlink="http://www.w3.org/1999/xlink" x="0px" y="0px"
	 viewBox="-263 371.4 100 100" style="enable-background:new -263 371.4 100 100;" xml:space="preserve">
<style type="text/css">
	.st0{fill:none;stroke:#000000;stroke-miterlimit:10;}
</style>
<path class="st0" d="M-193.7,409.9c0-1.7,1.9-3.1,4.2-3.1c2.3,0,4.2,1.4,4.2,3.1c1.2-1.5,3.7-2,5.7-1.1c2,0.9,2.7,2.8,1.5,4.3
	c2-0.9,4.6-0.4,5.7,1.1c1.2,1.5,0.5,3.4-1.5,4.3c2.3,0,4.2,1.4,4.2,3.1c0,1.7-1.9,3.1-4.2,3.1c2,0.9,2.7,2.8,1.5,4.3
	c-1.2,1.5-3.7,2-5.7,1.1c1.2,1.5,0.5,3.4-1.5,4.3c-2,0.9-4.6,0.4-5.7-1.1c0,1.7-1.9,3.1-4.2,3.1c-2.3,0-4.2-1.4-4.2-3.1
	c-1.2,1.5-3.7,2-5.7,1.1c-2-0.9-2.7-2.8-1.5-4.3c-2,0.9-4.6,0.4-5.7-1.1c-1.2-1.5-0.5-3.4,1.5-4.3c-2.3,0-4.2-1.4-4.2-3.1
	c0-1.7,1.9-3.1,4.2-3.1c-2-0.9-2.7-2.8-1.5-4.3c1.2-1.5,3.7-2,5.7-1.1c-1.2-1.5-0.5-3.4,1.5-4.3
	C-197.4,407.9-194.8,408.4-193.7,409.9z M-193.6,410.8c0-1.6,1.7-2.9,3.9-2.9c2.1,0,3.9,1.3,3.9,2.9c1.1-1.4,3.4-1.9,5.3-1.1
	c1.8,0.8,2.5,2.6,1.4,4c1.9-0.8,4.2-0.3,5.3,1.1s0.4,3.2-1.4,4c2.1,0,3.9,1.3,3.9,2.9c0,1.6-1.7,2.9-3.9,2.9c1.9,0.8,2.5,2.6,1.4,4
	s-3.4,1.9-5.3,1.1c1.1,1.4,0.4,3.2-1.4,4c-1.9,0.8-4.2,0.3-5.3-1.1c0,1.6-1.7,2.9-3.9,2.9c-2.1,0-3.9-1.3-3.9-2.9
	c-1.1,1.4-3.4,1.9-5.3,1.1c-1.8-0.8-2.5-2.6-1.4-4c-1.8,0.8-4.2,0.3-5.3-1.1c-1.1-1.4-0.4-3.2,1.4-4c-2.1,0-3.9-1.3-3.9-2.9
	c0-1.6,1.7-2.9,3.9-2.9c-1.8-0.8-2.5-2.6-1.4-4c1.1-1.4,3.4-1.9,5.3-1.1c-1.1-1.4-0.4-3.2,1.4-4C-197,408.9-194.6,409.4-193.6,410.8
	z"/>
<path class="st0" d="M-197.6,436.6c0.1-0.4,0.4-0.7,0.9-0.7c0.4,0,0.8,0.3,0.9,0.7c0.3-0.2,0.8-0.2,1.1,0.1s0.4,0.8,0.1,1.1
	c0.4,0.1,0.7,0.5,0.7,0.9s-0.3,0.8-0.7,0.9c0.2,0.3,0.2,0.8-0.1,1.1c-0.3,0.3-0.8,0.4-1.1,0.1c-0.1,0.4-0.4,0.7-0.9,0.7
	c-0.4,0-0.8-0.3-0.9-0.7c-0.3,0.2-0.8,0.2-1.1-0.1c-0.3-0.3-0.4-0.8-0.1-1.1c-0.4-0.1-0.7-0.5-0.7-0.9s0.3-0.8,0.7-0.9
	c-0.2-0.3-0.2-0.8,0.1-1.1C-198.4,436.4-197.9,436.4-197.6,436.6z M-197.4,437.2c0-0.3,0.3-0.5,0.6-0.5s0.6,0.2,0.6,0.5
	c0.2-0.2,0.6-0.1,0.8,0.1c0.2,0.2,0.3,0.6,0.1,0.8c0.3,0.1,0.5,0.3,0.5,0.7c0,0.3-0.2,0.6-0.5,0.7c0.2,0.2,0.1,0.6-0.1,0.8
	c-0.2,0.2-0.6,0.3-0.8,0.1c0,0.3-0.3,0.5-0.6,0.5s-0.6-0.2-0.6-0.5c-0.2,0.2-0.6,0.1-0.8-0.1c-0.2-0.2-0.3-0.6-0.1-0.8
	c-0.3-0.1-0.5-0.3-0.5-0.7c0-0.3,0.2-0.6,0.5-0.7c-0.2-0.2-0.1-0.6,0.1-0.8S-197.6,437-197.4,437.2z"/>
<path class="st0" d="M-202.8,440.3c0.1-0.3,0.4-0.6,0.8-0.6c0.4,0,0.7,0.3,0.8,0.6c0.3-0.1,0.7,0.1,0.9,0.4c0.2,0.3,0.1,0.8-0.1,1
	c0.2,0.2,0.3,0.7,0.1,1c-0.2,0.3-0.6,0.5-0.9,0.4c-0.1,0.3-0.4,0.6-0.8,0.6c-0.4,0-0.7-0.3-0.8-0.6c-0.3,0.1-0.7-0.1-0.9-0.4
	c-0.2-0.3-0.1-0.8,0.1-1c-0.2-0.2-0.3-0.7-0.1-1C-203.5,440.4-203.2,440.2-202.8,440.3z M-202.6,440.8c0.1-0.2,0.3-0.4,0.5-0.4
	s0.5,0.2,0.5,0.4c0.2-0.1,0.5,0.1,0.6,0.3c0.1,0.2,0.1,0.5-0.1,0.7c0.2,0.2,0.2,0.5,0.1,0.7c-0.1,0.2-0.4,0.3-0.6,0.3
	c-0.1,0.2-0.3,0.4-0.5,0.4s-0.5-0.2-0.5-0.4c-0.2,0.1-0.5-0.1-0.6-0.3c-0.1-0.2-0.1-0.5,0.1-0.7c-0.2-0.2-0.2-0.5-0.1-0.7
	C-203.1,440.9-202.8,440.7-202.6,440.8z"/>
<g>
	<path d="M-234.8,398.5c11.2,0,20.2,7.2,20.2,16.1c0,8.9-9,16.1-20.2,16.1c-0.9,0-1.8,0-2.7-0.1c0,0-0.1,0-0.1,0
		c-0.5,0-1.1,0.3-1.3,0.8c-0.3,0.6-0.6,1.6-0.5,2.7c-0.7-0.9-1.3-2.1-1.7-3.4c-0.1-0.5-0.5-0.9-1-1.1c-7.7-2.4-12.9-8.4-12.9-15
		C-255,405.7-245.9,398.5-234.8,398.5 M-234.8,397c-12,0-21.6,7.8-21.6,17.5c0,7.5,5.8,13.9,13.9,16.4c1.4,5.9,7.6,7.9,7.6,7.9
		c-3.6-3.3-3.3-5.7-2.7-6.9c0.9,0.1,1.9,0.1,2.8,0.1c12,0,21.6-7.8,21.6-17.5C-213.1,404.8-222.8,397-234.8,397L-234.8,397z"/>
</g>
</svg>
