<?xml version="1.0" encoding="utf-8"?>
<!-- Generator: Adobe Illustrator 19.0.0, SVG Export Plug-In . SVG Version: 6.00 Build 0)  -->
<svg version="1.0" id="Layer_1" xmlns="http://www.w3.org/2000/svg" xmlns:xlink="http://www.w3.org/1999/xlink" x="0px" y="0px"
	 viewBox="-247 371.4 100 100" style="enable-background:new -247 371.4 100 100;" xml:space="preserve">
<path d="M-179.5,411.1c1.5,2.9,2.5,6.2,2.5,9.7c0,11.4-9.1,20.7-20.3,20.7s-20.3-9.3-20.3-20.7c0-11.4,9.1-20.7,20.3-20.7
	c7.2,0,13.5,3.8,17.1,9.7l2.1-1.3c-4.1-6.5-11.2-10.9-19.3-10.9c-12.4-0.1-22.6,10.4-22.6,23.2c0,12.8,10.3,23.3,22.8,23.3
	c12.6,0,22.8-10.5,22.8-23.3c0-4.1-1-7.8-2.8-11.1L-179.5,411.1z"/>
<path d="M-186.3,415.1c0.9,1.7,1.4,3.6,1.4,5.7c0,7.1-5.6,12.7-12.4,12.7s-12.4-5.7-12.4-12.7s5.6-12.7,12.4-12.7
	c4.4,0,8.1,2.4,10.4,5.8l2.1-1.3c-2.7-4.2-7.3-7.1-12.5-7.1c-8.2,0-15,6.8-15,15.3s6.7,15.3,15,15.3s15-6.8,15-15.3
	c0-2.6-0.6-4.8-1.7-6.9L-186.3,415.1z"/>
<path d="M-166.3,407l-2.1,1.3c1.6,3.8,2.5,8,2.5,12.5c0,17.7-14.1,32-31.3,32c-17.3,0-31.3-14.4-31.3-32c0-17.7,14.1-32,31.3-32
	c10,0,19,4.9,24.8,12.5l2.1-1.4c-6.3-8.2-16-13.7-27-13.7c-18.7,0-33.9,15.5-33.9,34.6c0,19.1,15.2,34.6,33.9,34.6
	s33.9-15.5,33.9-34.6C-163.5,415.9-164.4,411.3-166.3,407z"/>
<path d="M-167.5,403.1l-6.7,4l6.5-4.2c1.6-6.5-1.1-4.1-1.1-4.1l-5.7,3.5l-1.6,4.8l-19.9,12.1c-0.7-0.6-1.9-0.7-2.8-0.2
	c-1.1,0.6-1.5,2.1-0.7,3.2s2.1,1.5,3.2,0.7c0.9-0.5,1.3-1.6,1.1-2.6l20-12.1l5.1,0.9l5.7-3.4C-164.3,405.9-161,404.6-167.5,403.1z"
	/>
</svg>
