<?xml version="1.0" encoding="utf-8"?>
<!-- Generator: Adobe Illustrator 19.0.0, SVG Export Plug-In . SVG Version: 6.00 Build 0)  -->
<svg version="1.0" id="Layer_1" xmlns="http://www.w3.org/2000/svg" xmlns:xlink="http://www.w3.org/1999/xlink" x="0px" y="0px"
	 viewBox="-247 371.4 100 100" style="enable-background:new -247 371.4 100 100;" xml:space="preserve">
<g>
	<g>
		<path d="M-174.6,436.9c-0.2-0.2-0.5-0.3-0.8-0.3c-0.3,0-0.6,0.1-0.8,0.4l-6.5,7c-0.4,0.5-0.4,1.2,0.1,1.6l7,6.5
			c0.2,0.2,0.5,0.3,0.8,0.3c0,0,0,0,0,0c0.3,0,0.6-0.1,0.8-0.4l6.5-7c0.4-0.5,0.4-1.2-0.1-1.6L-174.6,436.9z M-175,449.7l-5.3-5
			l5-5.3l5.3,5L-175,449.7z"/>
		<path d="M-216.8,437.6c-3.7,0-6.8,3-6.8,6.8c0,3.7,3,6.8,6.8,6.8s6.8-3,6.8-6.8C-210,440.6-213,437.6-216.8,437.6z M-216.8,448.9
			c-2.5,0-4.5-2-4.5-4.5c0-2.5,2-4.5,4.5-4.5s4.5,2,4.5,4.5C-212.2,446.8-214.3,448.9-216.8,448.9z"/>
		<path d="M-183.1,401.7c3.1,0,5.6-2.5,5.6-5.6s-2.5-5.6-5.6-5.6s-5.6,2.5-5.6,5.6S-186.2,401.7-183.1,401.7z M-183.1,392.7
			c1.9,0,3.4,1.5,3.4,3.4s-1.5,3.4-3.4,3.4s-3.4-1.5-3.4-3.4S-185,392.7-183.1,392.7z"/>
		<path d="M-212.3,401.7c3.1,0,5.6-2.5,5.6-5.6s-2.5-5.6-5.6-5.6s-5.6,2.5-5.6,5.6S-215.4,401.7-212.3,401.7z M-212.3,392.7
			c1.9,0,3.4,1.5,3.4,3.4s-1.5,3.4-3.4,3.4s-3.4-1.5-3.4-3.4S-214.2,392.7-212.3,392.7z"/>
		<path d="M-168.1,417.4c0-0.4,0.1-0.7,0.1-1.1c0-3.8-1.2-6.7-3.5-8.8c-3.2-2.8-8.5-3.8-15.2-2.9c-4.3,0.6-7.4,3.1-8.8,7.4
			c-0.6,1.7-0.8,3.5-0.8,5.5h-3.3c0.4-3.2,0.5-7-1.9-9.9c-2-2.4-5.5-3.5-10.7-3.4c-3.2,0-7.7,0.5-10.4,3.5c-2.2,2.5-3.8,6.5-3.6,9.9
			h-4.4v2.2h4.9c0.8,2.3,2.1,4.5,3.6,6.2c1.3,1.5,2.8,3.1,4.8,3.5c0.3,0.1,0.5,0.1,0.8,0.1c0.9,0,1.5-0.3,1.8-0.6
			c0.4-0.4,1-1.1,0.9-2.5c-0.1-1.9-1.7-4.7-3-6.7h9.3l0,0l-0.8,6.3l-4,4.3c-0.4,0.5-0.4,1.2,0.1,1.6l7,6.5c0.2,0.2,0.5,0.3,0.8,0.3
			c0.3,0,0.6-0.1,0.8-0.4l6.5-7c0.4-0.5,0.4-1.2-0.1-1.6l-4.2-3.9c1-2.6,1.5-5.1,1.7-6.2h3.9c0.6,2.3,1.9,5.7,3.6,8
			c-0.6,1-1,2.2-1,3.4c0,3.5,2.8,6.3,6.3,6.3s6.3-2.8,6.3-6.3c0-3-2.1-5.5-4.9-6.2c-0.2-0.6-0.6-1.2-0.9-1.7c-0.2-0.3-0.4-0.7-0.6-1
			l-1.1-2.5h11.6c-1.1,1.9-2.7,4.9-3,6.7c-0.2,1.3,0.4,2.1,0.7,2.4c0.8,0.7,2,0.9,3.3,0.5c2.5-0.7,3.8-3.2,4.9-5.2
			c0.1-0.3,0.3-0.5,0.4-0.7c0.6-1.1,1.3-2.3,1.7-3.7h4v-2.2H-168.1z M-199.9,430.7l-5,5.3l-5.3-5l2.7-2.9c0.7,0.6,1.7,1.3,2.9,1.1
			c0.6-0.1,1.3-0.4,1.9-1.3L-199.9,430.7z M-203.5,424.2c-0.2,0.6-0.4,1.3-0.7,1.9c-0.1,0.1-0.1,0.2-0.2,0.4
			c-0.2,0.3-0.4,0.6-0.6,0.6c-0.3,0-0.7-0.2-1.1-0.5c-0.1-0.1-0.2-0.2-0.3-0.3l0.4-3l0.4-3.4c0,0,0-0.1,0-0.1c0-0.1,0-0.1,0-0.2
			l-0.4-2.1l-0.8-4.4c-0.1-0.6-0.7-1-1.3-0.9c-0.6,0.1-1,0.7-0.9,1.3l0.7,4h-9.7l1.4-3.3c0.2-0.6,0-1.2-0.6-1.5
			c-0.6-0.2-1.2,0-1.5,0.6l-1.8,4.2l-0.1,0.3c-0.2,0.4-0.1,0.8,0.1,1.1c0.2,0.2,0.4,0.5,0.6,0.8c1.5,2.1,3.4,5.3,3.5,6.8
			c0,0.4,0,0.6-0.1,0.7c-0.1,0.1-0.3,0.1-0.7,0c-1.2-0.2-2.5-1.5-3.5-2.7c-1.1-1.3-2.1-3-2.9-4.8c-0.1-0.3-0.3-0.6-0.4-0.9
			c-0.1-0.4-0.2-0.8-0.3-1.3c-0.2-2.7,1.2-6.3,3.1-8.4c2-2.3,5.9-2.7,8.7-2.7c4.5-0.1,7.5,0.8,9,2.6c1.8,2.2,1.8,5.2,1.4,8.5
			c-0.1,0.5-0.1,0.9-0.2,1.4c0,0,0,0.3-0.1,0.9C-202.5,420.6-202.9,422.4-203.5,424.2z M-183.1,431c0,2.2-1.8,4.1-4.1,4.1
			s-4.1-1.8-4.1-4.1c0-0.6,0.2-1.2,0.4-1.8c0.3,0.2,0.6,0.4,1,0.5c0.2,0.1,0.5,0.1,0.9,0.1c0.8,0,1.8-0.3,2.8-1.7
			c0.2-0.3,0.4-0.6,0.5-0.9C-184.2,427.9-183.1,429.3-183.1,431z M-172.4,422.2c-0.1,0.2-0.3,0.5-0.4,0.8c-0.9,1.7-2,3.6-3.6,4.1
			c-0.6,0.2-1.1,0.1-1.2,0c0,0,0-0.1,0-0.3c0.3-1.7,2.3-5.2,3.4-7.1c0.2-0.3,0.3-0.5,0.5-0.7c0.2-0.3,0.2-0.6,0.1-0.9l-0.2-0.6
			l-1.2-4.1c-0.2-0.6-0.8-0.9-1.4-0.8c-0.6,0.2-0.9,0.8-0.8,1.4l1,3.5h-11.9l0.7-4c0.1-0.6-0.3-1.2-0.9-1.3
			c-0.6-0.1-1.2,0.3-1.3,0.9l-0.8,4.4l-0.4,2.1c0,0.1,0,0.1,0,0.2c0,0.2,0,0.3,0.1,0.5l1.3,3c0.2,0.4,0.4,0.8,0.7,1.2
			c0.1,0.2,0.2,0.4,0.3,0.5c0.5,0.9,0.7,1.5,0.3,2c-0.1,0.1-0.1,0.2-0.2,0.3c-0.5,0.6-0.9,0.5-1,0.5c0,0,0,0,0,0
			c-0.6-0.2-1.1-0.8-1.7-1.6c-1.2-1.7-2.3-4.4-2.8-6.3c-0.2-0.8-0.4-1.4-0.4-1.9c0-0.1,0-0.2,0-0.4c0-1.7,0.2-3.3,0.7-4.7
			c1.1-3.4,3.5-5.4,6.9-5.8c4.3-0.6,10.1-0.6,13.5,2.4c1.8,1.6,2.8,4,2.8,7.1c0,0.4,0,0.7-0.1,1.1c-0.1,0.8-0.4,1.5-0.7,2.2
			C-171.4,420.5-171.9,421.4-172.4,422.2z"/>
		<path d="M-195.3,439.8c-0.2-0.3-0.6-0.5-1-0.5c-0.4,0-0.8,0.3-0.9,0.6l-5.1,10.3c-0.2,0.4-0.2,0.8,0.1,1.1
			c0.2,0.3,0.6,0.5,0.9,0.5c0,0,0,0,0.1,0l11.5-0.7c0.4,0,0.8-0.3,0.9-0.6c0.2-0.4,0.2-0.8-0.1-1.1L-195.3,439.8z M-199.5,449.5
			l3.4-6.8l4.2,6.3L-199.5,449.5z"/>
	</g>
</g>
</svg>
