<?xml version="1.0" encoding="utf-8"?>
<!-- Generator: Adobe Illustrator 19.0.0, SVG Export Plug-In . SVG Version: 6.00 Build 0)  -->
<svg version="1.0" id="Layer_1" xmlns="http://www.w3.org/2000/svg" xmlns:xlink="http://www.w3.org/1999/xlink" x="0px" y="0px"
	 viewBox="-247 371.4 100 100" style="enable-background:new -247 371.4 100 100;" xml:space="preserve">
<title>collections_07</title>
<path d="M-165.6,424c-0.6-2.3-2.9-3.7-5.2-3.2c-0.9,0.2-1.7,0.7-2.3,1.5c-1.3-2-3.9-2.6-5.9-1.3c-0.5,0.3-0.8,0.7-1.2,1.1
	c-1.5-1.8-4.2-2.1-6-0.6c-0.1,0.1-0.3,0.2-0.4,0.4l-1.1-4.6c-0.6-2.3-3-3.7-5.3-3c-2.2,0.6-3.6,2.8-3.1,5.1l2.3,9.3l0,0
	c-1.5-1.9-4.2-2.2-6.1-0.7s-2.2,4.2-0.7,6.1c0.1,0.1,0.2,0.2,0.3,0.3l10.9,12.4l1.9,7.7c0.1,0.5,0.5,0.8,1,0.8h0.2
	c0.5-0.1,0.9-0.7,0.7-1.2l-8.7-35.2c-0.2-1.3,0.6-2.5,1.8-2.7c1.2-0.2,2.3,0.5,2.6,1.6l2,8.1l0,0l0.8,3.3c0,0.1,0.1,0.2,0.2,0.3l0,0
	c0.1,0.1,0.1,0.1,0.2,0.2h0.1c0.1,0,0.2,0.1,0.2,0.1h0.1h0.1h0.2l0,0c0.5-0.1,0.9-0.7,0.7-1.2l-0.8-3.4c-0.2-1.3,0.6-2.5,1.9-2.7
	c1.2-0.2,2.3,0.5,2.6,1.6l1.1,4.3c0,0.1,0.1,0.2,0.2,0.3l0.1,0.2c0.1,0.1,0.1,0.1,0.2,0.2l0.1,0.1l0.2,0.1h0.1h0.1h0.2
	c0.5-0.1,0.9-0.7,0.7-1.2l-0.7-2.9c-0.3-1.2,0.5-2.5,1.7-2.8c1.2-0.3,2.5,0.5,2.8,1.7l0.5,1.9v0.1l0.6,2.3c0.1,0.5,0.6,0.9,1.2,0.8
	c0.5-0.1,0.9-0.6,0.8-1.2c0,0,0-0.1,0-0.1l-0.6-2.4c-0.2-1.3,0.6-2.5,1.9-2.7c1.2-0.2,2.3,0.5,2.6,1.6l4.2,17c0.1,0.5,0.5,0.8,1,0.8
	h0.2c0.5-0.1,0.9-0.7,0.7-1.2L-165.6,424z M-190.4,442.6l-8.4-9.5c-0.7-1.1-0.4-2.5,0.7-3.2c0.9-0.6,2-0.5,2.8,0.2l2.6,2.8
	L-190.4,442.6z M-157,408.6v23.8c0,0.6-0.4,1-1,1s-1-0.4-1-1v-23.8c0-1.2-1-2.3-2.3-2.3l0,0h-56.6c-1.2,0-2.3,1-2.3,2.3v23.8
	c0,1.2,1,2.3,2.3,2.3h14c0.6,0,1,0.4,1,1c0,0.6-0.4,1-1,1h-14c-2.4,0-4.3-1.9-4.3-4.3l0,0v-23.8c0-2.4,1.9-4.3,4.3-4.3h56.6
	C-158.9,404.3-157,406.2-157,408.6z M-226.1,406.6c0,0.6-0.4,1-1,1h-8.9c-0.6,0-1-0.4-1-1c0-0.6,0.4-1,1-1h8.9
	C-226.5,405.6-226.1,406-226.1,406.6L-226.1,406.6z M-220,398.5v-9c0-0.6,0.4-1,1-1s1,0.4,1,1v8.9c0,0.6-0.4,1-1,1
	C-219.5,399.4-220,399-220,398.5L-220,398.5z M-222.3,403.2c-0.4,0.4-1,0.4-1.4,0l-6.3-6.3c-0.4-0.4-0.3-1.1,0.1-1.4
	c0.4-0.3,0.9-0.3,1.3,0l6.3,6.3C-221.9,402.1-221.9,402.8-222.3,403.2L-222.3,403.2z"/>
</svg>
