<?xml version="1.0" encoding="utf-8"?>
<!-- Generator: Adobe Illustrator 19.0.0, SVG Export Plug-In . SVG Version: 6.00 Build 0)  -->
<svg version="1.0" id="Layer_1" xmlns="http://www.w3.org/2000/svg" xmlns:xlink="http://www.w3.org/1999/xlink" x="0px" y="0px"
	 viewBox="-257 370.6 100 100" style="enable-background:new -257 370.6 100 100;" xml:space="preserve">
<g>
	<g>
		<path d="M-203.5,413.8C-203.5,413.8-203.5,413.8-203.5,413.8C-203.5,413.9-203.5,413.9-203.5,413.8
			C-203.5,413.8-203.5,413.8-203.5,413.8z"/>
		<path d="M-172.6,425.7c-2.8-2-9-7.1-14.8-10c-4.3-2.1-9.5-3.6-13.2-4.6c0,0,0,0,0.1,0c-0.4-5-2.1-15.1-4.5-22.2
			c-0.6-1.6-0.6-3.8-2.6-3.8c-0.2,0-0.4,0-0.6,0.1c-3.4,0.6-12,1.3-18.3,3.4c-6.3,2.2-12.2,6.5-15.2,8.1c-2.2,1.2-0.7,3-0.1,4.9
			c7.4,21.4,17.2,28,23.8,29.7c1.6,0.4,2.9,0.7,4,0.8c-2.9,16.4,5.2,22.7,7.1,23.6c0.7,0.3,2.3,0.8,4.7,0.8c6.5,0,18.2-3.9,29.1-26
			C-172.3,428.9-170.6,427.2-172.6,425.7z M-217.8,430c-5.3-1.3-15.3-6.8-22.9-28.8c-0.1-0.4-0.3-0.8-0.5-1.2
			c-0.7-1.7-0.6-1.7-0.1-2c0.9-0.5,2-1.2,3.3-2c3.1-1.9,7.4-4.6,11.8-6.1c4.6-1.6,10.6-2.4,14.6-2.9c1.4-0.2,2.7-0.3,3.6-0.5
			c0.1,0,0.2,0,0.3,0c0.3,0,0.5,0.1,0.9,1.7c0.1,0.4,0.2,0.8,0.3,1.2c2.3,6.8,3.9,16.2,4.4,21.1c-0.1,0.1-0.1,0.2-0.2,0.2
			c-0.7-0.2-1.4-0.4-1.9-0.5c-0.3-0.1-0.6-0.1-0.8-0.1c-1.1,0-1.6,0.8-2,1.9c-0.9-0.1-1.7-0.1-2.6-0.1c-2.9,0-5.6,0.5-7.4,1.3
			c-6.5,3-6.9,11.1-6.9,11.4c0,0.6,0.3,1.1,0.8,1.3c0.2,0.1,0.4,0.1,0.6,0.1c0.3,0,0.7-0.1,0.9-0.3c2-1.7,7.7-6.1,11.1-6.3
			c0,0.1,0,0.3,0,0.4c-1.7,4.1-2.8,7.7-3.4,11C-214.8,430.7-216.1,430.4-217.8,430z M-209.7,418c-0.1,0-0.3-0.1-0.4-0.1
			c-4.6,0-12.3,6.7-12.3,6.7s0.3-7.5,6.1-10.2c1.4-0.6,3.7-1.2,6.8-1.2c0.6,0,1.3,0.1,2,0.1c0,0.1-0.1,0.2-0.1,0.3
			C-208.4,415.1-209,416.6-209.7,418z M-173.8,428.9c-0.2,0.4-0.4,0.7-0.6,1.1c-10.8,21.9-22.1,25.2-27.9,25.2
			c-2.1,0-3.6-0.4-4.1-0.7c-0.1-0.1-9.4-5.3-6.3-22.4c0.1-0.5,0.2-1,0.3-1.5c0.4-1.9,0.9-3.9,1.7-6c0.5-1.4,1-3,1.7-4.5
			c0.8-1.8,1.6-3.8,2.6-5.8c0.1-0.2,0.2-0.5,0.3-0.7c0.1-0.2,0.1-0.3,0.2-0.5c0.1-0.4,0.3-0.6,0.4-0.8c0.2-0.4,0.4-0.7,0.5-0.7
			c0.1,0,0.2,0,0.4,0.1c0.4,0.1,1,0.3,1.6,0.5c0.4,0.1,0.9,0.2,1.4,0.4c0,0,0,0,0.1,0c3.8,1,9,2.4,13.5,4.6
			c4.4,2.2,9.1,5.7,12.2,8.1c1,0.7,1.8,1.3,2.4,1.8C-172.9,427.2-172.8,427.3-173.8,428.9z"/>
		<path d="M-186.6,431.5c-1.2-0.6-2.6-0.9-4.2-0.9c-1.8,0-3.2,0.4-3.3,0.4c-0.4,0.1-0.7,0.4-0.8,0.7c-0.2,0.3-0.2,0.7-0.1,1.1
			c0.1,0.2,1.5,3.9,4.9,5.6c1.2,0.6,2.6,0.9,4.2,0.9c1.8,0,3.2-0.4,3.3-0.4c0.4-0.1,0.7-0.4,0.8-0.7c0.2-0.3,0.2-0.7,0.1-1.1
			C-181.8,436.9-183.2,433.1-186.6,431.5z M-185.9,438c-1.1,0-2.4-0.2-3.5-0.8c-2.9-1.4-4.2-4.9-4.2-4.9s1.2-0.4,2.9-0.4
			c1.1,0,2.4,0.2,3.5,0.8c2.9,1.4,4.2,4.9,4.2,4.9S-184.3,438-185.9,438z"/>
		<path d="M-204.1,431.5c1.2,0.6,2.6,0.9,4.1,0.9c1.8,0,3.2-0.4,3.2-0.4c0.4-0.1,0.7-0.4,0.8-0.7c0.2-0.3,0.2-0.7,0.1-1.1
			c-0.1-0.2-1.5-3.9-4.8-5.6c-1.2-0.6-2.6-0.9-4.1-0.9c-1.8,0-3.2,0.4-3.2,0.4c-0.4,0.1-0.7,0.4-0.8,0.7c-0.2,0.3-0.2,0.7-0.1,1.1
			C-208.9,426.1-207.4,429.9-204.1,431.5z M-204.8,425.1c1.1,0,2.3,0.2,3.5,0.8c2.9,1.4,4.2,4.8,4.2,4.8s-1.2,0.4-2.8,0.4
			c-1.1,0-2.3-0.2-3.5-0.7c-2.9-1.4-4.2-4.8-4.2-4.8S-206.4,425.1-204.8,425.1z"/>
		<path d="M-190.9,442.7c-0.1,0-0.2,0-0.3,0c0,0-2.1,0.4-4.6,0.4c-2.3,0-4.1-0.3-5.4-1c-3.6-1.8-6.5-7.5-6.5-7.6
			c-0.2-0.5-0.7-0.8-1.2-0.8c-0.1,0-0.2,0-0.3,0c-0.6,0.1-1.1,0.6-1.1,1.2c0,0.4-0.9,10.7,5.7,14c1.2,0.6,2.5,0.9,3.8,0.9
			c5.5,0,10.6-4.7,10.8-4.9c0.5-0.4,0.6-1.1,0.3-1.6C-189.9,443-190.4,442.7-190.9,442.7z M-200.8,448.6c-1.1,0-2.2-0.2-3.2-0.7
			c-5.9-2.9-5-12.7-5-12.7s3.1,6.2,7.2,8.2c1.8,0.9,4,1.1,6,1.1c2.6,0,4.8-0.4,4.8-0.4S-195.8,448.6-200.8,448.6z"/>
		<path d="M-222.4,403.8c-0.1,0-0.7-0.1-1.7-0.1c-1.6,0-3.9,0.3-5.8,1.7c-3.1,2.3-3.6,6.5-3.6,6.7c-0.1,0.7,0.4,1.4,1.1,1.5
			c0.1,0,0.7,0.1,1.7,0.1c1.6,0,3.9-0.3,5.8-1.7c3.1-2.3,3.6-6.5,3.7-6.7C-221.2,404.6-221.7,404-222.4,403.8z M-225.8,411
			c-1.6,1.2-3.6,1.4-4.9,1.4c-0.9,0-1.5-0.1-1.5-0.1s0.5-3.8,3.1-5.8c1.6-1.2,3.6-1.4,4.9-1.4c0.9,0,1.5,0.1,1.5,0.1
			S-223.1,409-225.8,411z"/>
		<path d="M-211.9,406.8c0,0,0.1,0,0.2,0c3.8-0.1,6.6-3.2,6.8-3.3c0.5-0.5,0.5-1.4,0-1.9c-0.1-0.1-3.1-3-6.8-3c0,0-0.1,0-0.2,0
			c-3.8,0.1-6.6,3.2-6.8,3.3c-0.5,0.6-0.5,1.4,0,1.9C-218.5,403.9-215.5,406.8-211.9,406.8z M-211.8,400c0,0,0.1,0,0.1,0
			c3.2,0,5.8,2.6,5.8,2.6s-2.5,2.8-5.8,2.9c0,0-0.1,0-0.1,0c-3.2,0-5.8-2.6-5.8-2.6S-215.1,400-211.8,400z"/>
	</g>
</g>
</svg>
