<?xml version="1.0" encoding="utf-8"?>
<!-- Generator: Adobe Illustrator 19.0.0, SVG Export Plug-In . SVG Version: 6.00 Build 0)  -->
<svg version="1.0" id="Layer_1" xmlns="http://www.w3.org/2000/svg" xmlns:xlink="http://www.w3.org/1999/xlink" x="0px" y="0px"
	 viewBox="-247 371.4 100 100" style="enable-background:new -247 371.4 100 100;" xml:space="preserve">
<path d="M-169.5,456.8l-6.4-6.5l-0.1-9.7h2.8l-2.1-23.5c1-0.2,1.8-1.4,1.8-2.7c0-1.5-1-2.7-2.3-2.7l-2.2-24.6h-40.7l2.2,24.5
	c-1.2,0.1-2.3,1.3-2.3,2.7c0,1.3,0.7,2.3,1.8,2.7l-0.2,33.4l-6.7,6.4h2.2l4.5-4.3v4.3h1.5v-4.4l4.5,4.4h2.1l-6.6-6.5l0.2-27.5
	l1.6,17.8h36.4l0.1,9.6l-6.8,6.5h2.3l4.6-4.4v4.4h1.5l-0.1-4.1l4.4,4.3L-169.5,456.8z M-216.1,415c-0.1,0-0.1,0.1-0.2,0.1
	c-0.2,0-0.5-0.3-0.5-0.8s0.2-0.8,0.5-0.8l0,0c0.2,0,0.5,0.3,0.5,0.8C-215.8,414.6-215.9,414.9-216.1,415z M-214.6,416.1
	c0.4-0.5,0.6-1.1,0.6-1.8c0-1-0.4-1.8-1-2.3l-2.1-23.5h37.8l4.5,50.6h-37.8L-214.6,416.1z"/>
<path d="M-208.9,400.4c7.6-0.8,15.3,0.6,23,0c0.5,0,0.5-0.8,0-0.7c-7.7,0.6-15.3-0.8-23,0C-209.4,399.6-209.4,400.4-208.9,400.4
	L-208.9,400.4z"/>
<path d="M-211.6,400.4c0.2,0.1,0.2-0.2,0.2-0.3c0-0.5-0.7-0.5-0.7,0c0,0.6,0.4,1.2,1,0.8c0.6-0.3,0.4-1.4-0.3-1.3
	c-0.9,0.1-0.7,1.1,0.1,1.2c0.2,0,0.6-0.3,0.6-0.6c0-0.4-0.3-0.6-0.6-0.6C-211.8,399.6-212.1,400.3-211.6,400.4L-211.6,400.4z"/>
<path d="M-209.2,396.7c7.6-0.8,15.3,0.6,23,0c0.5,0,0.5-0.8,0-0.7c-7.7,0.6-15.3-0.8-23,0C-209.7,396-209.7,396.7-209.2,396.7
	L-209.2,396.7z"/>
<path d="M-211.8,396.7c0.2,0.1,0.2-0.2,0.2-0.3c0-0.5-0.7-0.5-0.7,0c0,0.6,0.4,1.2,1,0.8c0.6-0.3,0.4-1.4-0.3-1.3
	c-0.9,0.1-0.7,1.1,0.1,1.2c0.2,0,0.6-0.3,0.6-0.6c0-0.4-0.3-0.6-0.6-0.6C-212.1,395.9-212.2,396.6-211.8,396.7L-211.8,396.7z"/>
<path d="M-209.4,393.3c7.6-0.8,15.3,0.6,23,0c0.5,0,0.5-0.8,0-0.7c-7.7,0.6-15.3-0.8-23,0C-209.9,392.6-209.9,393.3-209.4,393.3
	L-209.4,393.3z"/>
<path d="M-212.1,393.3c0.2,0.1,0.2-0.2,0.2-0.3c0-0.5-0.7-0.5-0.7,0c0,0.6,0.4,1.2,1,0.8c0.6-0.3,0.4-1.4-0.3-1.3
	c-0.9,0.1-0.7,1.1,0.1,1.2c0.2,0,0.6-0.3,0.6-0.6c0-0.4-0.3-0.6-0.6-0.6C-212.3,392.5-212.5,393.2-212.1,393.3L-212.1,393.3z"/>
<path d="M-210.4,403.9c0.1,2.3-0.1,6.3,2.2,7.6c3,1.5,7.8,0.7,10.9,0.6c0.2,0,0.4-0.3,0.2-0.5c-0.6-0.6-1-1-1.8-1.4
	c-0.3-0.2-0.6,0.3-0.3,0.6c0.1,0.7,0.2,1.4,0.2,2.2c-0.3,0.2,0,0.8,0.3,0.6c1.7-1.3,1.6-2.2-0.2-3.2c-0.1,0.2-0.2,0.3-0.3,0.6
	c0.7,0.3,1.2,0.7,1.7,1.3c0.1-0.2,0.2-0.3,0.2-0.6c-2.5,0.2-5,0.2-7.5,0.1c-1.6-0.1-3.8-0.2-4.3-2.1c-0.5-1.8-0.7-3.6-0.7-5.5
	C-209.8,403.5-210.4,403.5-210.4,403.9L-210.4,403.9z"/>
<path d="M-193.4,417.2c0,3.3-0.3,6.9,0.6,10.1c0.5,1.6,4.6,1.2,5.7,1.2c1.8,0,3.9,0.5,4.1-1.9c0.2-1.4-0.1-2.8-0.2-4.3
	c-0.2-2-0.2-4.1-0.5-6.1c0-0.1-0.2-0.2-0.2-0.2c-1.7-0.2-3.5-0.4-5.1-0.5c-1.4-0.1-3.2-0.2-4.4,0.6c-0.4,0.2,0,0.9,0.4,0.6
	c1.5-1,4.5-0.6,6.3-0.4c0.5,0,1,0.1,1.4,0.2c1.2,0.2,1-0.1,1.3,1.5c0.2,1.8,0.2,3.7,0.3,5.5c0.2,1.7,0.5,4.4-2.3,4.3
	c-1.8-0.1-3.6-0.2-5.4-0.5c-2.1-0.3-1.3-8.7-1.3-10.3C-192.7,416.8-193.4,416.8-193.4,417.2L-193.4,417.2z"/>
<path d="M-197.6,431.2c-0.4,1-0.1,1.8,1,2c0.2,0,0.4-0.1,0.5-0.2c0.2-0.9,0.1-1.3-0.6-1.8c-0.2-0.1-0.4,0-0.5,0.2
	c-0.2,0.2-0.1,0.4-0.2,0.7c-0.1,0.5,0.6,0.6,0.7,0.2c0-0.2,0-0.4,0.1-0.5c-0.2,0.1-0.3,0.1-0.5,0.2c0.5,0.3,0.5,0.4,0.3,1
	c0.2-0.1,0.3-0.2,0.5-0.2c-0.6-0.2-0.7-0.6-0.5-1.1C-196.7,430.9-197.4,430.7-197.6,431.2L-197.6,431.2z"/>
<path d="M-195.3,432.8c2.7,0.2,5.5-0.6,8.2,0c1.9,0.3,3.2,0.8,5.1,0.2c0.5-0.2,0.2-0.9-0.2-0.7c-2.3,0.7-4.3-0.3-6.7-0.5
	c-2.2-0.2-4.3,0.4-6.4,0.2C-195.7,431.9-195.7,432.8-195.3,432.8L-195.3,432.8z"/>
<path d="M-197.1,435.1c-0.4,1.2,0.5,1.9,1.7,1.7c0.2-0.1,0.3-0.3,0.2-0.6c-0.3-0.6-1-1-1.4-1.4c-0.4-0.3-0.7,0.3-0.4,0.6
	c0.5,0.3,0.9,0.6,1.2,1.1c0.1-0.2,0.2-0.3,0.2-0.6c-0.6,0.2-1-0.2-0.8-0.8C-196.2,434.8-197,434.7-197.1,435.1L-197.1,435.1z"/>
<path d="M-194.3,436c3.9,0.3,8-1.1,11.7,0.2c0.5,0.2,0.6-0.6,0.2-0.7c-3.8-1.4-8,0.1-11.8-0.2C-194.8,435.3-194.8,436-194.3,436
	L-194.3,436z"/>
<path d="M-203.9,424.2c0.2,0.9,0.3,1.8,0.5,2.7c0.1,0.6,0.2,1.7,0.6,2.1c1,0.9,3.7,0.7,4.6-0.5c0.4-0.6,0.2-1.4,0.2-2
	c-0.1-0.9-0.2-1.8-0.6-2.7c-0.9-1.8-3.8-0.5-5.1-0.1c-0.5,0.1-0.2,0.8,0.2,0.7c1.1-0.2,3.9-1.5,4.3,0c0.2,0.6,0.3,1.4,0.4,2.1
	c0.1,0.5,0.2,1.3-0.2,1.7c-0.5,0.5-1.5,0.6-2.2,0.6c-0.9,0-1.2-0.2-1.4-1c-0.3-1.2-0.4-2.5-0.7-3.7
	C-203.4,423.6-204.1,423.8-203.9,424.2L-203.9,424.2z"/>
<path d="M-205.6,418.8c0.4,1.5,0.1,3.1,2,3.4c1,0.1,3.1,0.2,3.7-0.9c0.2-0.4-0.1-1.4-0.2-1.8c-0.2-0.6-0.4-1.2-0.8-1.7
	c-0.4-0.5-1-0.4-1.4-0.5c-1-0.1-2.1-0.1-3.1,0.4c-0.4,0.2-0.1,0.8,0.4,0.6c0.7-0.3,1.5-0.4,2.3-0.3c0.4,0,1-0.1,1.3,0.2
	c0.6,0.6,0.9,1.8,0.9,2.7c0,0.5-2.3,0.5-2.6,0.5c-0.6,0-1.2-0.1-1.4-0.8c-0.2-0.6-0.2-1.4-0.3-2
	C-205.1,418.1-205.7,418.4-205.6,418.8L-205.6,418.8z"/>
<path d="M-199.5,420.3c1.6,0.2,3.2-0.3,4.7-0.6c0.5-0.1,0.2-0.8-0.2-0.7c-1.5,0.3-3,0.8-4.6,0.6
	C-199.9,419.5-199.9,420.2-199.5,420.3L-199.5,420.3z"/>
<path d="M-194.8,418.7c-0.8,0-1.4-0.4-2-0.9c-0.2,0.2-0.2,0.4-0.4,0.6c0.6,0.4,1.1,0.9,1.8,1.1c-0.1-0.2-0.2-0.3-0.2-0.5
	c-0.1,0.6-0.3,1-0.7,1.5c-0.3,0.3,0.2,0.9,0.5,0.5c0.5-0.6,0.8-1.1,0.9-1.8c0-0.2-0.1-0.4-0.2-0.5c-0.6-0.2-1.1-0.7-1.7-1
	c-0.4-0.2-0.7,0.4-0.4,0.6c0.7,0.5,1.4,1,2.4,1C-194.3,419.4-194.3,418.7-194.8,418.7L-194.8,418.7z"/>
<path d="M-197.8,426.4c0.6,0.1,1,0.1,1.5-0.1c0.6-0.2,1-0.5,1.7-0.5c0.5,0,0.5-0.7,0-0.7c-1,0.1-1.9,0.8-3.1,0.6
	C-198,425.6-198.2,426.3-197.8,426.4L-197.8,426.4z"/>
<path d="M-194.1,425.1c-0.5-0.6-1.1-0.9-1.5-1.4c-0.3-0.4-0.8,0.2-0.5,0.5c0.5,0.6,1.1,0.9,1.5,1.4
	C-194.4,426.1-193.9,425.5-194.1,425.1L-194.1,425.1z"/>
<path d="M-195.2,425.7c0,0.6-0.2,1.1-0.5,1.7c-0.2,0.4,0.5,0.8,0.6,0.4c0.3-0.6,0.6-1.3,0.6-2C-194.4,425.2-195.2,425.2-195.2,425.7
	L-195.2,425.7z"/>
<path d="M-191.7,404.7c0.4,1.5,0.1,3.1,2,3.4c1,0.1,3.1,0.2,3.7-0.9c0.2-0.4-0.1-1.4-0.2-1.8c-0.2-0.6-0.4-1.2-0.8-1.7
	c-0.4-0.4-1-0.4-1.4-0.5c-1-0.1-2.1-0.1-3.1,0.4c-0.4,0.2-0.1,0.8,0.4,0.6c0.7-0.3,1.5-0.4,2.3-0.3c0.4,0,1-0.1,1.3,0.2
	c0.6,0.6,0.9,1.8,0.9,2.7c0,0.5-2.3,0.5-2.6,0.5c-0.6,0-1.2-0.1-1.4-0.8c-0.2-0.6-0.2-1.4-0.3-2
	C-191.2,404.1-191.9,404.3-191.7,404.7L-191.7,404.7z"/>
<path d="M-189.2,409c0.2,1.8,0.1,3.5-0.2,5.3c0.2-0.1,0.3-0.2,0.6-0.2c-0.4-0.2-0.6-0.5-1-0.9c-0.2,0.2-0.3,0.3-0.5,0.5
	c0.3,0.3,0.8,1,1.3,1c0.6,0,1.1-0.3,1.7-0.6c0.4-0.2,0.1-0.8-0.4-0.6c-0.3,0.2-0.6,0.3-1,0.5c-0.4,0.2-0.8-0.5-1.1-0.7
	c-0.3-0.3-0.8,0.2-0.5,0.5c0.3,0.4,0.6,0.7,1.1,1c0.2,0.1,0.5,0,0.6-0.2c0.3-1.8,0.4-3.6,0.2-5.5
	C-188.5,408.6-189.2,408.6-189.2,409L-189.2,409z"/>
</svg>
