<?xml version="1.0" encoding="utf-8"?>
<!-- Generator: Adobe Illustrator 19.0.0, SVG Export Plug-In . SVG Version: 6.00 Build 0)  -->
<svg version="1.0" id="Layer_1" xmlns="http://www.w3.org/2000/svg" xmlns:xlink="http://www.w3.org/1999/xlink" x="0px" y="0px"
	 viewBox="-247 371.4 100 100" style="enable-background:new -247 371.4 100 100;" xml:space="preserve">
<g>
	<g>
		<path d="M-224.5,400.9c3.6,0,6.7-2.6,7.3-6h12.8c0.7,3.4,3.7,6,7.3,6s6.7-2.6,7.3-6h12.8c0.7,3.4,3.7,6,7.3,6
			c4.1,0,7.5-3.4,7.5-7.5s-3.4-7.5-7.5-7.5c-3.6,0-6.7,2.6-7.3,6h-12.8c-0.7-3.4-3.7-6-7.3-6s-6.7,2.6-7.3,6h-12.8
			c-0.7-3.4-3.7-6-7.3-6c-4.1,0-7.5,3.4-7.5,7.5S-228.6,400.9-224.5,400.9z M-169.5,388.9c2.5,0,4.5,2,4.5,4.5s-2,4.5-4.5,4.5
			c-2,0-3.6-1.3-4.2-3c-0.2-0.5-0.3-1-0.3-1.5s0.1-1,0.3-1.5C-173.1,390.1-171.5,388.9-169.5,388.9z M-197,388.9c2,0,3.6,1.3,4.2,3
			c0.2,0.5,0.3,1,0.3,1.5s-0.1,1-0.3,1.5c-0.6,1.7-2.3,3-4.2,3s-3.6-1.3-4.2-3c-0.2-0.5-0.3-1-0.3-1.5s0.1-1,0.3-1.5
			C-200.6,390.1-199,388.9-197,388.9z M-224.5,388.9c2,0,3.6,1.3,4.2,3c0.2,0.5,0.3,1,0.3,1.5s-0.1,1-0.3,1.5c-0.6,1.7-2.3,3-4.2,3
			c-2.5,0-4.5-2-4.5-4.5S-227,388.9-224.5,388.9z"/>
		<circle cx="-216" cy="429.4" r="1.5"/>
		<circle cx="-212.3" cy="433" r="1.5"/>
		<circle cx="-208.6" cy="436.7" r="1.5"/>
		<circle cx="-205" cy="440.3" r="1.5"/>
		<circle cx="-197" cy="437.2" r="1.5"/>
		<circle cx="-197" cy="432.4" r="1.5"/>
		<circle cx="-177.5" cy="401.4" r="1.5"/>
		<circle cx="-181.1" cy="405.1" r="1.5"/>
		<circle cx="-184.8" cy="408.7" r="1.5"/>
		<circle cx="-188.5" cy="412.4" r="1.5"/>
		<path d="M-169.5,413.4c-3.6,0-6.7,2.6-7.3,6h-12.8c-0.7-3.4-3.7-6-7.3-6s-6.7,2.6-7.3,6h-12.8c-0.7-3.4-3.7-6-7.3-6
			c-4.1,0-7.5,3.4-7.5,7.5s3.4,7.5,7.5,7.5c3.6,0,6.7-2.6,7.3-6h12.8c0.7,3.4,3.7,6,7.3,6s6.7-2.6,7.3-6h12.8c0.7,3.4,3.7,6,7.3,6
			c4.1,0,7.5-3.4,7.5-7.5S-165.4,413.4-169.5,413.4z M-224.5,425.4c-2.5,0-4.5-2-4.5-4.5s2-4.5,4.5-4.5c2,0,3.6,1.3,4.2,3
			c0.2,0.5,0.3,1,0.3,1.5s-0.1,1-0.3,1.5C-220.9,424.1-222.5,425.4-224.5,425.4z M-197,425.4c-2,0-3.6-1.3-4.2-3
			c-0.2-0.5-0.3-1-0.3-1.5s0.1-1,0.3-1.5c0.6-1.7,2.3-3,4.2-3s3.6,1.3,4.2,3c0.2,0.5,0.3,1,0.3,1.5s-0.1,1-0.3,1.5
			C-193.4,424.1-195,425.4-197,425.4z M-169.5,425.4c-2,0-3.6-1.3-4.2-3c-0.2-0.5-0.3-1-0.3-1.5s0.1-1,0.3-1.5c0.6-1.7,2.3-3,4.2-3
			c2.5,0,4.5,2,4.5,4.5S-167,425.4-169.5,425.4z"/>
		<path d="M-169.5,440.9c-3.6,0-6.7,2.6-7.3,6h-12.8c-0.7-3.4-3.7-6-7.3-6s-6.7,2.6-7.3,6h-12.8c-0.7-3.4-3.7-6-7.3-6
			c-4.1,0-7.5,3.4-7.5,7.5s3.4,7.5,7.5,7.5c3.6,0,6.7-2.6,7.3-6h12.8c0.7,3.4,3.7,6,7.3,6s6.7-2.6,7.3-6h12.8c0.7,3.4,3.7,6,7.3,6
			c4.1,0,7.5-3.4,7.5-7.5S-165.4,440.9-169.5,440.9z M-224.5,452.9c-2.5,0-4.5-2-4.5-4.5s2-4.5,4.5-4.5c2,0,3.6,1.3,4.2,3
			c0.2,0.5,0.3,1,0.3,1.5s-0.1,1-0.3,1.5C-220.9,451.6-222.5,452.9-224.5,452.9z M-197,452.9c-2,0-3.6-1.3-4.2-3
			c-0.2-0.5-0.3-1-0.3-1.5s0.1-1,0.3-1.5c0.6-1.7,2.3-3,4.2-3s3.6,1.3,4.2,3c0.2,0.5,0.3,1,0.3,1.5s-0.1,1-0.3,1.5
			C-193.4,451.6-195,452.9-197,452.9z M-169.5,452.9c-2,0-3.6-1.3-4.2-3c-0.2-0.5-0.3-1-0.3-1.5s0.1-1,0.3-1.5c0.6-1.7,2.3-3,4.2-3
			c2.5,0,4.5,2,4.5,4.5S-167,452.9-169.5,452.9z"/>
	</g>
</g>
</svg>
