<?xml version="1.0" encoding="utf-8"?>
<!-- Generator: Adobe Illustrator 19.0.0, SVG Export Plug-In . SVG Version: 6.00 Build 0)  -->
<svg version="1.0" id="Layer_1" xmlns="http://www.w3.org/2000/svg" xmlns:xlink="http://www.w3.org/1999/xlink" x="0px" y="0px"
	 viewBox="-247 371.4 100 100" style="enable-background:new -247 371.4 100 100;" xml:space="preserve">
<path d="M-231.2,396.9h63v11.7h1.6V385H-224v0h-8.8v56.8h30.8v-1.6h-29.2V396.9z M-228.9,386.6L-228.9,386.6l60.6,0v8.7h-63v-8.7
	H-228.9z M-218.6,390.9c0-0.8,0.7-1.5,1.5-1.5c0.8,0,1.5,0.7,1.5,1.5s-0.7,1.5-1.5,1.5C-218,392.4-218.6,391.8-218.6,390.9z
	 M-223.3,390.9c0-0.8,0.7-1.5,1.5-1.5c0.8,0,1.5,0.7,1.5,1.5s-0.7,1.5-1.5,1.5C-222.7,392.4-223.3,391.8-223.3,390.9z M-228,390.9
	c0-0.8,0.7-1.5,1.5-1.5c0.8,0,1.5,0.7,1.5,1.5s-0.7,1.5-1.5,1.5C-227.4,392.4-228,391.8-228,390.9z M-171.3,415.3v-4.5h-18v4.5h-6.9
	v44h34.4v-44H-171.3z M-187.7,412.4h14.8v2.4h-14.8V412.4z M-163.4,457.6h-31.2v-40.8h31.2V457.6z M-181.3,421h-8.8v8.8h8.8V421z
	 M-183,428.2h-5.6v-5.6h5.6V428.2z M-181.3,441.9h-8.8v-8.8h5v1.6h-3.4v5.6h5.6v-2.8h1.6V441.9z M-181.3,445.2h-8.8v8.8h8.8V445.2z
	 M-183,452.4h-5.6v-5.6h5.6V452.4z M-181.5,432.8l1.1,1.1l-5.4,5.4l-2.4-2.4l1.1-1.1l1.2,1.2L-181.5,432.8z M-168.4,435.9h-10.1
	v-1.6h10.1V435.9z M-172.3,439.5h-6.2v-1.6h6.2V439.5z M-168.4,448.7h-10.1v-1.6h10.1V448.7z M-172.3,452.3h-6.2v-1.6h6.2V452.3z
	 M-174.9,424.4h-3.6v-1.6h3.6V424.4z M-169.2,428.1h-9.3v-1.6h9.3V428.1z"/>
</svg>
