<?xml version="1.0" encoding="utf-8"?>
<!-- Generator: Adobe Illustrator 19.0.0, SVG Export Plug-In . SVG Version: 6.00 Build 0)  -->
<svg version="1.0" id="Layer_1" xmlns="http://www.w3.org/2000/svg" xmlns:xlink="http://www.w3.org/1999/xlink" x="0px" y="0px"
	 viewBox="-219 370.9 100 100" style="enable-background:new -219 370.9 100 100;" xml:space="preserve">
<style type="text/css">
	.st0{stroke:#000000;stroke-width:0.25;stroke-miterlimit:10;}
</style>
<g>
	<path d="M-136.5,388c0.1,0.1,0.2,0.1,0.3,0.1c0.1,0,0.3-0.1,0.3-0.1c0.2-0.2,0.2-0.5,0-0.7l-1.1-1.1c-0.2-0.2-0.5-0.2-0.7,0
		s-0.2,0.5,0,0.7L-136.5,388z"/>
	<path d="M-132.7,391.7c0.1,0.1,0.2,0.1,0.3,0.1c0.1,0,0.3-0.1,0.3-0.1c0.2-0.2,0.2-0.5,0-0.7l-1.1-1.1c-0.2-0.2-0.5-0.2-0.7,0
		s-0.2,0.5,0,0.7L-132.7,391.7z"/>
	<path d="M-137.2,391.9c0.1,0,0.3-0.1,0.3-0.1l1.1-1.1c0.2-0.2,0.2-0.5,0-0.7c-0.2-0.2-0.5-0.2-0.7,0l-1.1,1.1
		c-0.2,0.2-0.2,0.5,0,0.7C-137.5,391.8-137.3,391.9-137.2,391.9z"/>
	<path d="M-133.5,388.1c0.1,0,0.3-0.1,0.3-0.1l1.1-1.1c0.2-0.2,0.2-0.5,0-0.7s-0.5-0.2-0.7,0l-1.1,1.1c-0.2,0.2-0.2,0.5,0,0.7
		C-133.8,388.1-133.7,388.1-133.5,388.1z"/>
	<path d="M-157.8,399.8c-1.3,0-2.5,1.1-2.5,2.5c0,1.3,1.1,2.5,2.5,2.5c1.3,0,2.5-1.1,2.5-2.5C-155.4,401-156.5,399.8-157.8,399.8z
		 M-157.8,403.8c-0.8,0-1.5-0.7-1.5-1.5s0.7-1.5,1.5-1.5c0.8,0,1.5,0.7,1.5,1.5S-157.1,403.8-157.8,403.8z"/>
	<path d="M-190.3,439.3c-0.1-0.1-0.3,0-0.4,0.1c-0.1,0.1-0.2,0.2-0.2,0.3c-0.3,2.1-2.4,3.6-5,3.6s-4.7-1.5-5-3.6
		c0-0.1-0.1-0.3-0.2-0.3c-0.1-0.1-0.3-0.1-0.4-0.1c-4.3,1.4-7,5.6-6.8,10.1l0.4,9c0,0.3,0.3,0.5,0.5,0.5h22.7c0.3,0,0.5-0.2,0.5-0.5
		l0.6-9l0,0C-183.2,444.9-186,440.8-190.3,439.3z M-184.5,449.4L-184.5,449.4l-0.5,8.6h-21.8l-0.5-8.6c-0.3-3.9,2-7.4,5.6-8.8
		c0.6,2.3,3.1,3.9,5.9,3.9c2.9,0,5.3-1.7,5.9-3.9C-186.5,441.9-184.3,445.5-184.5,449.4z"/>
	<path d="M-196,423.8c-3.9,0-7.1,3.4-7.1,7.6c0,4.2,3.2,7.6,7.1,7.6s7.1-3.4,7.1-7.6C-188.9,427.2-192,423.8-196,423.8z M-196,437.9
		c-3.4,0-6.1-2.9-6.1-6.6c0-3.7,2.7-6.6,6.1-6.6c3.4,0,6.1,2.9,6.1,6.6C-189.8,435-192.6,437.9-196,437.9z"/>
	<path d="M-162.7,424.7c-0.1-0.1-0.3,0-0.4,0.1c-0.1,0.1-0.2,0.2-0.2,0.3c-0.3,2.1-2.4,3.6-5,3.6s-4.7-1.5-5-3.6
		c0-0.1-0.1-0.3-0.2-0.3c-0.1-0.1-0.3-0.1-0.4-0.1c-4.3,1.4-7,5.6-6.8,10.1l0.4,9c0,0.3,0.3,0.5,0.5,0.5h22.7c0.3,0,0.5-0.2,0.5-0.5
		l0.6-9l0,0C-155.7,430.3-158.5,426.2-162.7,424.7z M-156.9,434.8L-156.9,434.8l-0.5,8.6h-21.8l-0.5-8.6c-0.3-3.9,2-7.4,5.6-8.8
		c0.6,2.3,3.1,3.9,5.9,3.9c2.9,0,5.3-1.7,5.9-3.9C-158.9,427.3-156.7,430.9-156.9,434.8z"/>
	<path d="M-168.4,424.3c3.9,0,7.1-3.4,7.1-7.6c0-4.2-3.2-7.6-7.1-7.6c-3.9,0-7.1,3.4-7.1,7.6C-175.6,420.9-172.3,424.3-168.4,424.3z
		 M-168.4,410.2c3.4,0,6.1,2.9,6.1,6.6c0,3.7-2.7,6.6-6.1,6.6c-3.4,0-6.1-2.9-6.1-6.6C-174.5,413.1-171.8,410.2-168.4,410.2z"/>
	<path d="M-152.2,429.7h22.7c0.3,0,0.5-0.2,0.5-0.5l0.6-9l0,0c0.3-4.5-2.5-8.6-6.8-10.1c-0.1-0.1-0.3,0-0.4,0.1
		c-0.1,0.1-0.2,0.2-0.2,0.3c-0.3,2.1-2.4,3.6-5,3.6s-4.7-1.5-5-3.6c0-0.1-0.1-0.3-0.2-0.3c-0.1-0.1-0.3-0.1-0.4-0.1
		c-4.3,1.4-7,5.6-6.8,10.1l0.4,9C-152.7,429.5-152.5,429.7-152.2,429.7z M-146.7,411.2c0.6,2.3,3.1,3.9,5.9,3.9
		c2.9,0,5.3-1.7,5.9-3.9c3.5,1.5,5.9,5,5.6,8.8l0,0l-0.5,8.6h-21.9l-0.5-8.6C-152.6,416.3-150.3,412.7-146.7,411.2z"/>
	<path d="M-140.8,409.7c3.9,0,7.1-3.4,7.1-7.6c0-4.2-3.2-7.6-7.1-7.6c-3.9,0-7.1,3.4-7.1,7.6C-148,406.3-144.8,409.7-140.8,409.7z
		 M-140.8,395.5c3.4,0,6.1,2.9,6.1,6.6c0,3.7-2.7,6.6-6.1,6.6c-3.4,0-6.1-2.9-6.1-6.6C-147,398.5-144.2,395.5-140.8,395.5z"/>
	<path class="st0" d="M-192,418.8c0.1,0.2,0.2,1.3,0.1,2.3c0,0.1,0,0.1,0.1,0.2s0.1,0.1,0.2,0.1c0.3,0,0.7-0.4,1.6-1.4
		c0.3-0.4,0.9-1,1-1.1c4.6-0.7,8.2-4.7,8.2-9.4c0-5.3-4.3-9.6-9.5-9.6c-5.2,0-9.5,4.3-9.5,9.5C-199.9,414-196.6,418-192,418.8z
		 M-190.4,400.4c4.9,0,9,4,9,9c0,4.4-3.3,8.2-7.7,8.9c-0.3,0-0.6,0.4-1.4,1.3c-0.2,0.3-0.6,0.7-0.8,1c0-1.4-0.1-2.2-0.6-2.3
		c-4.3-0.7-7.4-4.5-7.4-8.8C-199.3,404.5-195.3,400.4-190.4,400.4z"/>
</g>
</svg>
