<?xml version="1.0" encoding="utf-8"?>
<!-- Generator: Adobe Illustrator 19.0.0, SVG Export Plug-In . SVG Version: 6.00 Build 0)  -->
<svg version="1.0" id="Layer_1" xmlns="http://www.w3.org/2000/svg" xmlns:xlink="http://www.w3.org/1999/xlink" x="0px" y="0px"
	 viewBox="-247 370.9 100 100" style="enable-background:new -247 370.9 100 100;" xml:space="preserve">
<g>
	<g>
		<path d="M-163.6,421.7l-5.1-14.4c-4.9-13.8-12.4-27.9-30.5-27.9c-16.3,0-29.7,13.3-29.7,29.7c0,9,4,17.3,11,23l4.4,24.3
			c0.1,0.5,0.3,0.8,0.7,1c0.2,0.1,6.3,3.4,13.3,3.4c6.9,0,13-3.2,13.3-3.4c0.3-0.2,0.7-0.6,0.7-1l4.3-23.9c0-0.1,0-0.3,0-0.5
			c2.5-2.3,4.8-5.1,6.6-8.4h9.7c0.5,0,0.9-0.2,1.1-0.6C-163.5,422.6-163.5,422-163.6,421.7z M-175.6,420.6c-0.6,0-1,0.3-1.2,0.8
			c-4.6,8.8-12,13.9-21,14.4v-6.3V422v-5.1l5.8-10.1c0.2-0.5,0.2-1,0-1.4c-0.2-0.5-0.7-0.7-1.2-0.7h-12c-0.5,0-1,0.2-1.2,0.7
			c-0.2,0.5-0.2,1,0,1.4l5.8,10.1v5.1v7.5v7.8c0,0.8,0.7,1.4,1.4,1.4c5.4,0,10.4-1.5,14.7-4.3l-2.4,12.9c-3.5,1.7-7.4,2.5-11.3,2.5
			c-2.5,0-4.9-0.3-7.3-1c-0.8-0.2-1.6,0.2-1.7,1c-0.2,0.8,0.2,1.6,1,1.7c2.6,0.7,5.3,1.1,8,1.1c3.7,0,7.3-0.7,10.7-2l-0.8,4.4
			c-1.6,0.8-6.3,2.7-11.3,2.7c-5,0-9.7-1.9-11.3-2.7l-2.4-13c4.3,2.3,9.1,3.5,14.1,3.5c2.7,0,5.4-0.3,8-1.1c0.8-0.2,1.1-1,1-1.7
			c-0.2-0.8-1-1.1-1.7-1c-2.4,0.7-4.8,1-7.3,1c-5.2,0-10.3-1.5-14.6-4.4l-1.4-7.4c-0.1-0.3-0.2-0.7-0.6-0.9
			c-6.6-5.1-10.3-12.8-10.3-21.2c0-14.9,12-26.9,26.9-26.9c16.3,0,23,12.5,27.8,26.1l4.4,12.5h-8.5V420.6z M-199.2,413.7l-3.5-6.1h7
			L-199.2,413.7z"/>
		<path d="M-209.3,414.9c-0.3-0.7-1.2-0.9-1.9-0.6l-6.5,3.7c-0.7,0.3-0.9,1.2-0.6,1.9c0.2,0.5,0.8,0.7,1.2,0.7
			c0.2,0,0.5-0.1,0.7-0.2l6.5-3.7C-209.1,416.3-208.8,415.5-209.3,414.9z"/>
		<path d="M-180.7,418l-6.5-3.7c-0.7-0.3-1.6-0.1-1.9,0.6c-0.3,0.7-0.1,1.6,0.6,1.9l6.5,3.7c0.2,0.1,0.5,0.2,0.7,0.2
			c0.5,0,0.9-0.2,1.2-0.7C-179.8,419.3-180.2,418.5-180.7,418z"/>
		<path d="M-180.2,407.6h-6.1c-0.8,0-1.4,0.7-1.4,1.4s0.7,1.4,1.4,1.4h6.1c0.8,0,1.4-0.7,1.4-1.4S-179.4,407.6-180.2,407.6z"/>
		<path d="M-191.5,398.4l3.1-5.2c0.3-0.7,0.1-1.6-0.6-1.9c-0.7-0.3-1.6-0.1-1.9,0.6l-3.1,5.2c-0.3,0.7-0.1,1.6,0.6,1.9
			c0.2,0.1,0.5,0.2,0.7,0.2C-192.3,399.2-191.7,398.9-191.5,398.4z"/>
		<path d="M-207.6,391.9c-0.3-0.7-1.2-0.9-1.9-0.6c-0.7,0.3-0.9,1.2-0.6,1.9l3.1,5.2c0.2,0.5,0.7,0.7,1.2,0.7c0.2,0,0.5-0.1,0.7-0.2
			c0.7-0.3,0.9-1.2,0.6-1.9L-207.6,391.9z"/>
		<path d="M-212.2,410.4c0.8,0,1.4-0.7,1.4-1.4s-0.7-1.4-1.4-1.4h-6.1c-0.8,0-1.4,0.7-1.4,1.4s0.7,1.4,1.4,1.4H-212.2z"/>
		<path d="M-210,424.8c-0.3,0.7-0.1,1.6,0.6,1.9c0.2,0.1,0.5,0.2,0.7,0.2c0.5,0,0.9-0.2,1.2-0.7l3.1-5.2c0.3-0.7,0.1-1.6-0.6-1.9
			c-0.7-0.3-1.6-0.1-1.9,0.6L-210,424.8z"/>
		<path d="M-191.5,419.6c-0.3-0.7-1.2-0.9-1.9-0.6c-0.7,0.3-0.9,1.2-0.6,1.9l3.1,5.2c0.2,0.5,0.8,0.7,1.2,0.7c0.2,0,0.5-0.1,0.7-0.2
			c0.7-0.3,0.9-1.2,0.6-1.9L-191.5,419.6z"/>
		<path d="M-189.2,403.2c0.2,0.5,0.8,0.7,1.2,0.7c0.2,0,0.5-0.1,0.7-0.2l6.5-3.7c0.7-0.3,0.9-1.2,0.6-1.9c-0.3-0.7-1.2-0.9-1.9-0.6
			l-6.5,3.7C-189.3,401.7-189.6,402.5-189.2,403.2z"/>
		<path d="M-199.2,387.1c-0.8,0-1.4,0.7-1.4,1.4v7.5c0,0.8,0.7,1.4,1.4,1.4c0.8,0,1.4-0.7,1.4-1.4v-7.5
			C-197.8,387.8-198.4,387.1-199.2,387.1z"/>
		<path d="M-217.7,400l6.5,3.7c0.2,0.1,0.5,0.2,0.7,0.2c0.5,0,0.9-0.2,1.2-0.7c0.3-0.7,0.1-1.6-0.6-1.9l-6.5-3.7
			c-0.7-0.3-1.6-0.1-1.9,0.6C-218.6,398.8-218.4,399.7-217.7,400z"/>
	</g>
</g>
</svg>
