<?xml version="1.0" encoding="utf-8"?>
<!-- Generator: Adobe Illustrator 19.0.0, SVG Export Plug-In . SVG Version: 6.00 Build 0)  -->
<svg version="1.0" id="Layer_1" xmlns="http://www.w3.org/2000/svg" xmlns:xlink="http://www.w3.org/1999/xlink" x="0px" y="0px"
	 viewBox="-188.8 370.6 100 100" style="enable-background:new -188.8 370.6 100 100;" xml:space="preserve">
<style type="text/css">
	.st0{fill:none;}
</style>
<g>
	<path d="M-146.1,422c2.5-1.7,4.1-4.5,4.1-7.7c0-5.1-4.1-9.3-9.3-9.3c-5.1,0-9.3,4.1-9.3,9.3c0,3.2,1.6,6,4.1,7.7
		c-2.7,0.7-4.6,3.2-4.6,6.1v8.3c0.6-0.1,1.2-0.2,1.8-0.4v-8c0-2.2,1.7-4.1,3.8-4.4l1.4,5.7c0.1,0.3,0.3,0.6,0.6,0.6
		c0.1,0.1,0.2,0.1,0.3,0.1c0.2,0,0.4-0.1,0.6-0.2l2.5-1.9v6.8c0.6-0.1,1.2-0.1,1.8-0.1v-6.6l2.4,1.8c0.4-0.7,1-1.5,1.7-2.1l0.2-2
		c0.2,0.4,0.4,0.9,0.6,1.4c0.5-0.4,1-0.7,1.6-1C-142.4,424.2-144,422.6-146.1,422z M-158.7,414.4c0-4.1,3.3-7.4,7.4-7.4
		c4.1,0,7.4,3.3,7.4,7.4s-3.3,7.4-7.4,7.4C-155.3,421.8-158.7,418.4-158.7,414.4z M-152.5,427.6l-1-4h0.9l2.2,2.5L-152.5,427.6z
		 M-149.2,424.9l-1.1-1.2h2.2L-149.2,424.9z M-145.9,427.5l-1.9-1.4l1.9-2.1c0.1,0.1,0.2,0.1,0.3,0.2L-145.9,427.5z"/>
</g>
<g>
	<path d="M-117.7,421.2c2.5-1.7,4.1-4.5,4.1-7.7c0-5.1-4.1-9.3-9.3-9.3s-9.3,4.1-9.3,9.3c0,3.2,1.6,6,4.1,7.7
		c-2.5,0.7-4.4,3-4.6,5.7c0.7,0.5,1.3,1,1.8,1.7v-1.4c0-1.9,1.2-3.5,2.8-4.1c0.9,2,2.9,3.3,5.1,3.3s4.2-1.3,5.1-3.3
		c1.6,0.7,2.8,2.3,2.8,4.1v3.2h-3.2v-2.2c0-0.5-0.4-0.9-0.9-0.9c-0.5,0-0.9,0.4-0.9,0.9v7.5c0.6,0.1,1.2,0.2,1.8,0.4v-4h3.2v4.7
		c0.7,0.2,1.2,0.4,1.8,0.6v-10.3C-113.1,424.4-115,422-117.7,421.2z M-122.8,424.6c-1.4,0-2.5-0.7-3.3-1.8h6.5
		C-120.2,423.9-121.5,424.6-122.8,424.6z M-122.8,421c-4.1,0-7.4-3.3-7.4-7.4s3.3-7.4,7.4-7.4s7.4,3.3,7.4,7.4S-118.7,421-122.8,421
		z"/>
</g>
<path d="M-155.6,428.3c-0.5,0-0.9,0.4-0.9,0.9v6.4c0.6-0.1,1.2-0.2,1.8-0.2v-6.2C-154.6,428.7-155.1,428.3-155.6,428.3z"/>
<path d="M-152.4,412.1c-0.4,0-0.7,0.2-0.9,0.6c-0.1,0.4-0.1,0.8,0.2,1s0.7,0.3,1,0.1c0.4-0.2,0.5-0.7,0.4-1.1
	C-151.7,412.3-152.1,412.1-152.4,412.1z"/>
<path d="M-151.6,412.6C-151.6,412.7-151.6,412.6-151.6,412.6L-151.6,412.6z"/>
<path d="M-147.3,413.4L-147.3,413.4c0.1,0.4,0.5,0.6,0.9,0.6c0.4,0,0.7-0.3,0.9-0.7c0.1-0.4-0.1-0.7-0.3-0.9c-0.3-0.2-0.7-0.2-1.1,0
	C-147.3,412.5-147.4,412.9-147.3,413.4C-147.3,413.3-147.3,413.3-147.3,413.4z"/>
<path d="M-128.6,448l-0.2-1.9c14-1.2,18.5-4,18.5-5.2c0-0.6-1-1.5-3.7-2.5c-0.6-0.2-1.1-0.4-1.7-0.6c-0.9-0.2-2-0.6-3.1-0.7
	c-0.6-0.1-1.2-0.2-1.8-0.4c-2.6-0.4-5.4-0.8-8.6-1l0.2-1.9c3.1,0.2,6.1,0.6,8.8,1.1c0.6,0.1,1.3,0.2,1.9,0.4
	c1.2,0.2,2.3,0.5,3.3,0.8c0.7,0.2,1.3,0.4,1.9,0.6c3.3,1.2,4.9,2.6,4.9,4.3c0,1.9-2,3.4-6.1,4.7C-118,446.7-122.9,447.5-128.6,448z"
	/>
<path d="M-147.2,448.3c-6.3-0.4-11.9-1.2-15.9-2.3c-4.7-1.3-6.9-3-6.9-4.9c0-2.3,3.1-4.1,9.3-5.5c0.6-0.1,1.2-0.2,1.9-0.4
	c0.9-0.2,1.8-0.3,2.7-0.4c0.6-0.1,1.2-0.2,1.9-0.2c1.5-0.2,3-0.4,4.6-0.5c0.6-0.1,1.2-0.1,1.9-0.1c0.4,0,0.7-0.1,1.2-0.1l0.1,1.9
	c-0.4,0-0.7,0.1-1.1,0.1c-0.6,0.1-1.2,0.1-1.8,0.1c-1.6,0.1-3.1,0.3-4.6,0.5c-0.6,0.1-1.2,0.2-1.8,0.2c-0.9,0.1-1.8,0.3-2.7,0.4
	c-0.6,0.1-1.2,0.2-1.8,0.4c-6.1,1.4-7.8,3-7.8,3.6c0,1.7,6.7,4.5,21.1,5.4L-147.2,448.3z"/>
<path d="M-132.7,442.2c2.4-1.6,4-4.3,4.1-7.4c0-0.1,0-0.2,0-0.2c0-2.3-0.8-4.3-2.2-5.9c-0.6-0.6-1.1-1.2-1.8-1.7
	c-1.5-1-3.3-1.7-5.3-1.7c-1.4,0-2.8,0.3-4,0.9c-0.6,0.2-1.1,0.6-1.6,1c-0.2,0.2-0.5,0.4-0.7,0.6c-0.7,0.6-1.2,1.3-1.7,2.1
	c-0.8,1.4-1.3,3-1.3,4.7v0.1c0,3.1,1.7,5.9,4.1,7.6c-2.3,0.7-4.1,2.7-4.5,5.1c-0.1,0.3-0.1,0.6-0.1,0.9v11.1c0,0.5,0.4,0.9,0.9,0.9
	h17.7c0.5,0,0.9-0.4,0.9-0.9v-11.1c0-0.4-0.1-0.7-0.1-1.1C-128.6,444.8-130.4,442.9-132.7,442.2z M-145.3,434.6L-145.3,434.6
	c0-1.9,0.7-3.7,2-5c0.6-0.6,1.1-1,1.8-1.5c1.1-0.6,2.3-1,3.6-1c2,0,3.9,0.9,5.2,2.2c0.8,0.8,1.5,1.9,1.8,3c0.2,0.7,0.4,1.5,0.4,2.3
	c0,0.1,0,0.1,0,0.1c-0.1,4.1-3.4,7.3-7.4,7.3C-141.9,442-145.3,438.6-145.3,434.6z M-134.6,443.8c-0.7,1.1-1.7,1.4-3.1,1.4
	s-2.7-0.3-3.4-1.4H-134.6z M-129.9,448.3v3.2v1.8v5.1h-3.2h-1.8h-10.9v-10.1c0-0.3,0-0.6,0.1-0.9c0.3-1.5,1.3-2.7,2.7-3.3
	c0.9,2,2.9,2.5,5.1,2.5s4.2-0.6,5.1-2.5c1.4,0.6,2.3,1.7,2.7,3.1C-129.9,447.7-129.9,448-129.9,448.3z"/>
<path d="M-146.2,430.7c-0.1-0.4-0.5-0.6-0.9-0.6c-0.4,0-0.7,0.3-0.9,0.7c-0.1,0.4,0.1,0.8,0.4,1c0.3,0.2,0.7,0.2,1-0.1
	C-146.1,431.5-146,431-146.2,430.7C-146.2,430.6-146.2,430.7-146.2,430.7L-146.2,430.7z"/>
<path d="M-125.2,403.7c0.1,0.1,0.3,0.1,0.5,0.1c0.1,0,0.3-0.1,0.4-0.1c0.3-0.2,0.5-0.5,0.5-0.8v-2.1h0.9c1.5,0,2.8-1.3,2.8-2.8v-9.5
	c0-1.5-1.3-2.8-2.8-2.8h-9.4v-0.4c0-1.5-1.3-2.8-2.8-2.8h-16.7c-1.5,0-2.8,1.3-2.8,2.8v9.5c0,1.5,1.3,2.8,2.8,2.8h0.9v2.1
	c0,0.3,0.2,0.6,0.5,0.8c0.1,0.1,0.3,0.1,0.4,0.1c0.2,0,0.4-0.1,0.5-0.1l4.5-2.9h2.6v0.4c0,1.5,1.3,2.8,2.8,2.8h9.9L-125.2,403.7z
	 M-145.2,395.8c-0.2,0-0.4,0.1-0.5,0.1l-3.3,2.2v-1.4c0-0.5-0.4-0.9-0.9-0.9h-1.9c-0.6,0-1-0.4-1-1v-9.6c0-0.6,0.4-1,1-1h16.7
	c0.6,0,1,0.4,1,1v0.4h-5.5c-1.2,0-2.3,0.8-2.7,1.9h-6.9c-0.5,0-0.9,0.4-0.9,0.9c0,0.5,0.4,0.9,0.9,0.9h6.8v1.5h-6.8
	c-0.5,0-0.9,0.4-0.9,0.9s0.4,0.9,0.9,0.9h6.8v3.1L-145.2,395.8L-145.2,395.8z M-140.6,397.9v-9.5c0-0.6,0.4-1,1-1h16.7
	c0.6,0,1,0.4,1,1v9.5c0,0.6-0.4,1-1,1h-1.9c-0.5,0-0.9,0.4-0.9,0.9v1.4l-3.3-2.2c-0.1-0.1-0.3-0.1-0.5-0.1h-10.1
	C-140.1,399-140.6,398.5-140.6,397.9L-140.6,397.9z"/>
<path d="M-136.9,392.5h11.4c0.5,0,0.9-0.4,0.9-0.9s-0.4-0.9-0.9-0.9h-11.4c-0.5,0-0.9,0.4-0.9,0.9
	C-137.8,392.1-137.4,392.5-136.9,392.5L-136.9,392.5z"/>
<path d="M-124.6,395c0-0.5-0.4-0.9-0.9-0.9h-11.4c-0.5,0-0.9,0.4-0.9,0.9c0,0.5,0.4,0.9,0.9,0.9h11.4
	C-125,395.9-124.6,395.5-124.6,395L-124.6,395z"/>
<path d="M-122.5,412.5c0.2,0.4,0.6,0.6,1,0.6c0.4-0.1,0.7-0.3,0.7-0.7c0.1-0.4-0.1-0.7-0.4-1c-0.4-0.2-0.9-0.2-1.2,0.1
	C-122.5,411.8-122.7,412.2-122.5,412.5C-122.5,412.6-122.5,412.5-122.5,412.5L-122.5,412.5z"/>
<path d="M-126.7,412c0-0.1-0.1-0.2-0.1-0.3c-0.4-0.7-1.5-0.4-1.7,0.4c-0.1,0.7,0.7,1.3,1.4,0.9C-126.8,412.8-126.6,412.4-126.7,412
	C-126.7,412-126.7,412.1-126.7,412L-126.7,412z"/>
<path d="M-122.7,415.3c-0.3-0.3-0.7-0.3-1,0c-0.2,0.2-0.6,0.4-0.9,0.4s-0.7-0.1-0.9-0.4c-0.3-0.3-0.7-0.3-1,0c-0.3,0.3-0.3,0.7,0,1
	c0.6,0.6,1.2,0.8,1.9,0.8c0.7,0,1.4-0.2,1.9-0.8C-122.3,416-122.3,415.6-122.7,415.3L-122.7,415.3z"/>
<path d="M-133.1,458.4"/>
<polygon points="-123.5,444.1 -123.1,442.9 -129,441.5 -130.3,441.7 -129.2,442.7 "/>
<g>
	<g>
		<path d="M-155.1,445.6l-3.5-6.2l10.6-0.9l4.7,5.9L-155.1,445.6z M-156.8,440.2l2.3,4.2l9.3-0.9l-3.1-4L-156.8,440.2z"/>
	</g>
	<g>
		<line class="st0" x1="-155.1" y1="440.8" x2="-148.7" y2="440.3"/>
		
			<rect x="-155.2" y="440.3" transform="matrix(-0.9972 7.520032e-02 -7.520032e-02 -0.9972 -270.293 891.3611)" width="6.5" height="0.6"/>
	</g>
	<g>
		<line class="st0" x1="-154.4" y1="442" x2="-147.9" y2="441.5"/>
		
			<rect x="-154.4" y="441.5" transform="matrix(-0.9967 8.154761e-02 -8.154761e-02 -0.9967 -265.7134 894.5028)" width="6.5" height="0.6"/>
	</g>
	<g>
		<line class="st0" x1="-153.6" y1="443.5" x2="-147.1" y2="442.9"/>
		
			<rect x="-153.6" y="442.9" transform="matrix(-0.9967 8.152790e-02 -8.152790e-02 -0.9967 -264.0125 897.1474)" width="6.5" height="0.6"/>
	</g>
</g>
<path d="M-114.7,439.9l0.6-0.4l-0.3-0.4l-1.2,0.8h-1.9c-0.2-0.4-0.9-0.6-1.5-0.6c-0.7,0-1.5,0.2-1.5,0.8s0.7,0.8,1.4,0.8
	c-0.1,0.1-0.2,0.2-0.2,0.4c0,0.6,0.8,0.8,1.5,0.8c0.7,0,1.5-0.2,1.5-0.8c0-0.1-0.1-0.2-0.1-0.4l0.9-0.6h2.3v-0.6L-114.7,439.9
	L-114.7,439.9z M-117,440.7c-0.2-0.1-0.5-0.1-0.8-0.1c0.1-0.1,0.1-0.1,0.1-0.1h1.1L-117,440.7z M-119.1,439.9c0.6,0,0.9,0.2,1,0.2
	c-0.1,0.1-0.4,0.2-1,0.2s-0.9-0.2-1-0.2C-120.1,440.1-119.7,439.9-119.1,439.9z M-117.8,441.7c-0.6,0-0.9-0.2-1-0.2
	c0.1-0.1,0.4-0.2,1-0.2c0.6,0,0.9,0.2,1,0.2C-117,441.5-117.3,441.7-117.8,441.7z"/>
<g>
	<g>
		<path d="M-127.9,438.5l-2.3-1.4l4.3-0.9l2.3,1.4L-127.9,438.5z M-129,437.3l1.2,0.7l3-0.6l-1.2-0.7L-129,437.3z"/>
	</g>
	<g>
		<path d="M-121.9,440l-4.9-0.2l1.7-1.6L-121.9,440z M-125.7,439.3l2,0.1l-1.4-0.8L-125.7,439.3z"/>
	</g>
	<g>
		<path d="M-121.9,438.9c-0.6,0-1.2-0.1-1.5-0.3c-0.3-0.2-0.3-0.4-0.3-0.5c0.1-0.4,0.8-0.7,1.2-0.7c1-0.2,2.2-0.1,2.7,0.2
			c0.3,0.2,0.3,0.4,0.3,0.5c-0.1,0.4-0.8,0.7-1.2,0.7l0,0C-121,438.8-121.4,438.9-121.9,438.9z M-123.2,438.2
			C-123.2,438.2-123.2,438.2-123.2,438.2c0.4,0.3,1.5,0.4,2.5,0.2c0.6-0.1,0.9-0.3,0.9-0.4c0,0,0,0-0.1-0.1
			c-0.4-0.2-1.4-0.3-2.4-0.1C-122.9,437.9-123.1,438.1-123.2,438.2L-123.2,438.2z"/>
	</g>
</g>
</svg>
