<?xml version="1.0" encoding="utf-8"?>
<!-- Generator: Adobe Illustrator 19.0.0, SVG Export Plug-In . SVG Version: 6.00 Build 0)  -->
<svg version="1.1" id="Layer_1" xmlns="http://www.w3.org/2000/svg" xmlns:xlink="http://www.w3.org/1999/xlink" x="0px" y="0px"
	 viewBox="-429 218 100 101" style="enable-background:new -429 218 100 101;" xml:space="preserve">
<style type="text/css">
	.st0{fill:#14344E;}
</style>
<path class="st0" d="M-379,219.3c-27,0-48.9,21.9-48.9,48.9s21.9,48.9,48.9,48.9s48.9-21.9,48.9-48.9S-352,219.3-379,219.3z
	 M-379,308.8c-22.4,0-40.7-18.2-40.7-40.7c0-22.4,18.3-40.6,40.7-40.6s40.7,18.2,40.7,40.7C-338.4,290.6-356.6,308.8-379,308.8z"/>
<path class="st0" d="M-360.3,282.5l-9.1-8.6c0,0-4.7,5.3-6.8,4.5c0,0-6.6-3.9-11.6-14.6c-1-2,5.9-5.7,5.9-5.7l-6.4-10.8
	c0,0-10.1,5.1-9.4,10.9c0.7,5.9,5.3,21.9,23.5,30.8C-367.9,292.2-360.3,282.5-360.3,282.5z"/>
</svg>
