<?xml version="1.0" encoding="utf-8"?>
<!-- Generator: Adobe Illustrator 19.0.0, SVG Export Plug-In . SVG Version: 6.00 Build 0)  -->
<svg version="1.0" id="Layer_1" xmlns="http://www.w3.org/2000/svg" xmlns:xlink="http://www.w3.org/1999/xlink" x="0px" y="0px"
	 viewBox="-247 371.4 100 100" style="enable-background:new -247 371.4 100 100;" xml:space="preserve">
<style type="text/css">
	.st0{fill:none;stroke:#000000;stroke-width:2;stroke-miterlimit:10;}
</style>
<g>
	<path class="st0" d="M-205.9,443.9"/>
</g>
<g>
	<path class="st0" d="M-190.9,443.9"/>
</g>
<g>
	<path d="M-219.8,442.6c-6.7,0-12.2-5.5-12.2-12.2s5.5-12.2,12.2-12.2c6.7,0,12.2,5.5,12.2,12.2S-213.1,442.6-219.8,442.6z
		 M-219.8,419.9c-5.8,0-10.5,4.7-10.5,10.5s4.7,10.5,10.5,10.5c5.8,0,10.5-4.7,10.5-10.5S-214,419.9-219.8,419.9z"/>
</g>
<g>
	<path d="M-174.1,442.6c-6.7,0-12.2-5.5-12.2-12.2s5.5-12.2,12.2-12.2c6.7,0,12.2,5.5,12.2,12.2S-167.4,442.6-174.1,442.6z
		 M-174.1,419.9c-5.8,0-10.5,4.7-10.5,10.5s4.7,10.5,10.5,10.5c5.8,0,10.5-4.7,10.5-10.5S-168.3,419.9-174.1,419.9z"/>
</g>
<path d="M-158.5,426.7c-0.3-1.6-1-3.1-2-4.9c-1.6-2.9-6.4-11.7-7-12.8c-0.7-1.3-2.7-3.5-2.8-3.6c-2.4-2.1-5.4-3.3-8.6-3.3
	c-0.8,0-1.7,0.1-2.5,0.2c-0.7-3-3.5-5-6.6-4.6c-1.6,0.2-3.1,1-4.1,2.3c-1,1.3-1.5,2.9-1.3,4.5c0,0.1,0.2,1.9,0.6,4.5
	c-1.1-1-2.6-1.5-4.2-1.5c-1.6,0-3,0.6-4.2,1.5c0.3-2.7,0.6-4.5,0.6-4.5c0.2-1.6-0.3-3.2-1.3-4.5c-1-1.3-2.5-2.1-4.1-2.3
	c-3.1-0.4-5.9,1.7-6.6,4.6c-0.8-0.2-1.6-0.2-2.5-0.2c-3.2,0-6.3,1.2-8.7,3.4c-0.1,0.1-2,2.2-2.8,3.6c-0.8,1.4-5.5,9.9-7,12.8
	c-1,1.8-1.6,3.4-2,4.9c-0.4,1.7-0.5,3.4-0.3,5.2c0.6,5.7,4.4,10.8,9.6,13c2,0.8,4.1,1.3,6.2,1.3c3.6,0,7.3-1.2,10.2-3.6
	c2.6-2.1,4.4-5,5.3-8.2c1.4,2.7,4.2,4.6,7.5,4.6c3.3,0,6.1-1.9,7.5-4.6c0.9,3.2,2.7,6.1,5.3,8.2c2.9,2.4,6.5,3.6,10.2,3.6
	c2.1,0,4.2-0.4,6.2-1.3c5.2-2.2,9-7.3,9.6-13C-158,430.1-158.1,428.3-158.5,426.7z M-197,409.1c2.2,0,4.1,1.5,4.6,3.5
	c0.5,3.8,1,8.3,1.5,12c-1.5-1.6-3.7-2.7-6.1-2.7c-2.4,0-4.6,1-6.1,2.7c0.5-3.7,1-8.2,1.5-12C-201,410.6-199.2,409.1-197,409.1z
	 M-205.5,430.5l-0.1,0.9c-0.4,3.9-2.2,7.4-5.2,9.9c-4.1,3.3-9.8,4.1-14.6,2.1c-4.7-2-8.1-6.6-8.6-11.6c-0.2-1.6-0.1-3.1,0.3-4.6
	c0.3-1.4,0.9-2.8,1.8-4.5c1.5-2.8,6.2-11.3,7-12.8c0.6-1.2,2.5-3.2,2.5-3.2c2.1-1.9,4.7-2.9,7.5-2.9c3.1,0,6.1,1.3,8.2,3.6
	c0.3,0.3,0.9,0.4,1.2,0c0.3-0.3,0.4-0.9,0-1.2c-1.5-1.6-3.3-2.8-5.4-3.4c0.5-2.2,2.6-3.6,4.8-3.4c1.2,0.1,2.2,0.7,2.9,1.6
	c0.7,0.9,1.1,2.1,0.9,3.2c0,0.1-0.5,3.6-1,8.1c-0.1,0.5-0.2,1-0.2,1.6h0C-204.2,420.2-205.1,427.6-205.5,430.5L-205.5,430.5z
	 M-197,437.1c-3.7,0-6.7-3-6.7-6.7c0-3.7,3-6.7,6.7-6.7s6.7,3,6.7,6.7C-190.2,434.1-193.2,437.1-197,437.1z M-159.9,431.6
	c-0.5,5.1-3.9,9.6-8.6,11.6c-4.8,2.1-10.6,1.2-14.6-2.1c-2.8-2.3-4.6-5.6-5.1-9.4l-0.1-0.5c-0.2-1.9-1.3-10.4-2.1-17.4h0
	c0-0.6-0.1-1.1-0.2-1.6c-0.6-4.5-1-8-1-8.1c-0.1-1.2,0.2-2.3,0.9-3.2c0.7-0.9,1.8-1.5,2.9-1.6c2.2-0.3,4.3,1.2,4.8,3.4
	c-2,0.7-3.9,1.9-5.4,3.4c-0.3,0.3-0.3,0.9,0,1.2c0.3,0.3,0.9,0.3,1.2,0c2.2-2.3,5.1-3.6,8.2-3.6c2.8,0,5.4,1,7.5,2.8
	c0.5,0.6,2,2.3,2.5,3.2c0.6,1.1,5.4,9.8,7,12.8c0.9,1.6,1.5,3.1,1.8,4.4C-159.8,428.5-159.7,430.1-159.9,431.6z"/>
<g>
	<path class="st0" d="M-191.3,443.9"/>
</g>
<g>
	<path class="st0" d="M-206.4,443.9"/>
</g>
<g>
	<path class="st0" d="M-200.1,394.7"/>
</g>
</svg>
