<?xml version="1.0" encoding="utf-8"?>
<!-- Generator: Adobe Illustrator 19.0.0, SVG Export Plug-In . SVG Version: 6.00 Build 0)  -->
<svg version="1.0" id="Layer_1" xmlns="http://www.w3.org/2000/svg" xmlns:xlink="http://www.w3.org/1999/xlink" x="0px" y="0px"
	 viewBox="-247 371.4 100 100" style="enable-background:new -247 371.4 100 100;" xml:space="preserve">
<g>
	<path d="M-163.3,414.5h-9.9V410c0-0.7-0.6-1.2-1.2-1.2h-3.6v2.5h2.2v3.2h-9.9c-0.7,0-1.2,0.6-1.2,1.2v4.5h-5.2v-4.5
		c0-0.7-0.6-1.2-1.2-1.2h-14.9c-0.7,0-1.2,0.6-1.2,1.2v4.5h-5.2v-4.5c0-0.7-0.6-1.2-1.2-1.2h-14.9c-0.7,0-1.2,0.6-1.2,1.2v12.4
		c0,0.7,0.6,1.2,1.2,1.2h6.1v3.5h2.6v-3.5h6.1c0.7,0,1.2-0.6,1.2-1.2v-5.4h5.2v5.4c0,0.7,0.6,1.2,1.2,1.2h6.3v4.5
		c0,0.7,0.6,1.2,1.2,1.2h3.5v-2.5h-2.2v-3.2h6.1c0.7,0,1.2-0.6,1.2-1.2v-5.4h5.2v5.4c0,0.7,0.6,1.2,1.2,1.2h9.9v3.2h-2.1v2.5h2.2
		v3.2h-26.1c-0.7,0-1.2,0.6-1.2,1.2v4.9h-5.3v-4.9c0-0.7-0.6-1.2-1.2-1.2H-222v-2.4h-2.5v2.4h-6.1c-0.7,0-1.2,0.6-1.2,1.2v12.5
		c0,0.7,0.6,1.2,1.2,1.2h20.9c0.7,0,1.2-0.6,1.2-1.2v-5h5.3v5c0,0.7,0.6,1.2,1.2,1.2h38.6c0.7,0,1.2-0.6,1.2-1.2v-12.4
		c0-0.7-0.6-1.2-1.2-1.2h-9.9v-4.1h-0.1c0-0.1,0.1-0.2,0.1-0.4v-4.5h9.9c0.7,0,1.2-0.6,1.2-1.2v-12.4
		C-162.1,415-162.7,414.5-163.3,414.5z M-164.6,450.6h-36.1v-9.8h36.1C-164.6,440.8-164.6,450.6-164.6,450.6z M-211,450.6h-18.4
		v-9.8h18.4V450.6z M-164.6,426.8h-19.8v-9.9h19.8C-164.6,416.9-164.6,426.8-164.6,426.8z M-194.6,426.8h-12.3v-9.9h12.3
		C-194.6,416.9-194.6,426.8-194.6,426.8z M-217.1,426.8h-12.3v-9.9h12.3C-217.1,416.9-217.1,426.8-217.1,426.8z"/>
	<path d="M-163.3,390.7h-11c-0.7,0-1.2,0.6-1.2,1.2v5.4h-5.2v-5.4c0-0.7-0.6-1.2-1.2-1.2H-202c-0.7,0-1.2,0.6-1.2,1.2v5.4h-5.2v-5.4
		c0-0.7-0.6-1.2-1.2-1.2h-21.1c-0.7,0-1.2,0.6-1.2,1.2v12.4c0,0.7,0.6,1.2,1.2,1.2h9.2v4.5c0,0.7,0.6,1.2,1.2,1.2h3.5v-2.5h-2.2
		v-3.2h9.2c0.7,0,1.2-0.6,1.2-1.2v-4.4h5.2v4.4c0,0.7,0.6,1.2,1.2,1.2h20c0.7,0,1.2-0.6,1.2-1.2v-4.4h5.2v4.4c0,0.7,0.6,1.2,1.2,1.2
		h11c0.7,0,1.2-0.6,1.2-1.2s0-1.2,0-1.8c0-1.3,0-2.7,0-4c0-1.4,0-2.8,0-4.2c0-0.4,0-0.9,0-1.3c0-0.4,0-0.8,0-1.2
		C-162.2,391.1-162.7,390.7-163.3,390.7z M-164.6,403h-8.5v-9.9h8.5V403z M-183.3,403h-17.5v-9.9h17.5V403z M-211,403h-18.4v-9.9
		h18.4V403z"/>
	<rect x="-212.8" y="408.8" width="7.7" height="2.5"/>
	<rect x="-201.2" y="408.8" width="7.7" height="2.5"/>
	<rect x="-189.6" y="408.8" width="7.7" height="2.5"/>
	<rect x="-186.3" y="432.5" width="5.5" height="2.5"/>
	<rect x="-194.5" y="432.5" width="5.5" height="2.5"/>
</g>
</svg>
