<?xml version="1.0" encoding="utf-8"?>
<!-- Generator: Adobe Illustrator 19.0.0, SVG Export Plug-In . SVG Version: 6.00 Build 0)  -->
<svg version="1.0"
	 id="Layer_1" xmlns:rdf="http://www.w3.org/1999/02/22-rdf-syntax-ns#" xmlns:svg="http://www.w3.org/2000/svg" xmlns:inkscape="http://www.inkscape.org/namespaces/inkscape" xmlns:sodipodi="http://sodipodi.sourceforge.net/DTD/sodipodi-0.dtd" xmlns:cc="http://creativecommons.org/ns#" xmlns:dc="http://purl.org/dc/elements/1.1/"
	 xmlns="http://www.w3.org/2000/svg" xmlns:xlink="http://www.w3.org/1999/xlink" x="0px" y="0px" viewBox="-247 371.4 100 100"
	 style="enable-background:new -247 371.4 100 100;" xml:space="preserve">
<g transform="translate(0,-952.36218)">
	<path d="M-188.9,1332.8c-4.6,0-8.3,3.7-8.3,8.3c0,3.5,2.2,6.5,5.2,7.7l-4.1,16.4c-1.5-0.6-3.1-0.9-4.8-0.9c-3.3,0-6.3,1.2-8.5,3.2
		l-15.6-13.1c1.2-1.3,1.9-3,1.9-4.9c0-4.1-3.3-7.4-7.4-7.4c-4.1,0-7.4,3.3-7.4,7.4c0,4.1,3.3,7.4,7.4,7.4c1.5,0,2.9-0.5,4.1-1.2
		l15.7,13.2c-1.9,2.3-3.1,5.2-3.1,8.4c0,3.2,1.2,6.2,3.2,8.5l-10.6,10.5c-1.8-1.5-4-2.3-6.5-2.3c-5.6,0-10.2,4.6-10.2,10.2
		s4.6,10.2,10.2,10.2s10.2-4.6,10.2-10.2c0-2.5-0.9-4.7-2.4-6.5l10.6-10.6c2.3,2,5.2,3.2,8.5,3.2c4.6,0,8.6-2.4,10.9-6l15.4,7.3
		c-0.2,0.8-0.3,1.6-0.3,2.5c0,5.1,4.2,9.3,9.3,9.3c5.1,0,9.3-4.2,9.3-9.3s-4.2-9.3-9.3-9.3c-3.6,0-6.7,2.1-8.2,5.1l-15.1-7.2
		c0.7-1.6,1.1-3.4,1.1-5.3c0-1.5-0.3-2.9-0.7-4.3l15-10c1.3,1.9,3.6,3.2,6.1,3.2c4.1,0,7.4-3.3,7.4-7.4c0-4.1-3.3-7.4-7.4-7.4
		s-7.4,3.3-7.4,7.4c0,0.9,0.2,1.8,0.5,2.6l-14.9,10c-1.1-2.2-2.9-4-5-5.2l4.2-16.7c0.4,0.1,0.9,0.1,1.3,0.1c4.6,0,8.3-3.7,8.3-8.3
		C-180.6,1336.5-184.3,1332.8-188.9,1332.8z M-188.9,1334.6c3.6,0,6.5,2.9,6.5,6.5s-2.9,6.5-6.5,6.5c-3.6,0-6.5-2.9-6.5-6.5
		S-192.5,1334.6-188.9,1334.6z M-230.6,1343.9c3.1,0,5.6,2.5,5.6,5.6c0,3.1-2.5,5.6-5.6,5.6c-3.1,0-5.6-2.5-5.6-5.6
		C-236.1,1346.3-233.7,1343.9-230.6,1343.9z M-167.6,1353.1c3.1,0,5.6,2.5,5.6,5.6c0,3.1-2.5,5.6-5.6,5.6c-3.1,0-5.6-2.5-5.6-5.6
		C-173.2,1355.6-170.7,1353.1-167.6,1353.1z M-201,1366.1c6.1,0,11.1,5,11.1,11.1c0,6.1-5,11.1-11.1,11.1c-6.1,0-11.1-5-11.1-11.1
		C-212.1,1371.1-207.1,1366.1-201,1366.1z M-165.8,1386.5c4.1,0,7.4,3.3,7.4,7.4c0,4.1-3.3,7.4-7.4,7.4c-4.1,0-7.4-3.3-7.4-7.4
		C-173.2,1389.8-169.9,1386.5-165.8,1386.5z M-227.8,1395.7c4.6,0,8.3,3.7,8.3,8.3s-3.7,8.3-8.3,8.3s-8.3-3.7-8.3-8.3
		S-232.4,1395.7-227.8,1395.7z"/>
</g>
</svg>
