<?xml version="1.0" encoding="utf-8"?>
<!-- Generator: Adobe Illustrator 19.0.0, SVG Export Plug-In . SVG Version: 6.00 Build 0)  -->
<svg version="1.0" id="Layer_1" xmlns="http://www.w3.org/2000/svg" xmlns:xlink="http://www.w3.org/1999/xlink" x="0px" y="0px"
	 viewBox="-247 371.4 100 100" style="enable-background:new -247 371.4 100 100;" xml:space="preserve">
<style type="text/css">
	.st0{stroke:#010101;stroke-width:2;stroke-miterlimit:10;}
</style>
<path class="st0" d="M524.8,380.8"/>
<path d="M-159.1,455.4l-37.5-68.5c-0.2-0.3-0.4-0.5-0.8-0.5h0c-0.3,0-0.6,0.2-0.8,0.5l-37.2,68.5c-0.1,0.3-0.1,0.6,0,0.9
	c0.2,0.3,0.4,0.4,0.8,0.4h74.7c0.3,0,0.6-0.2,0.8-0.4C-159,456-159,455.7-159.1,455.4z M-226.7,443.1l2.8,0l-3.6,1.5L-226.7,443.1z
	 M-228.6,447l9.3-3.9l8.6,0l-20.7,8.6l2.6-4.9L-228.6,447z M-225.7,441.4l6.5-12l43.9-0.1l6.5,11.9L-225.7,441.4z M-204.3,402l14,0
	l6.5,11.9l-27,0L-204.3,402z M-211.8,415.7l28.9-0.1l6.5,11.9l-41.9,0.1L-211.8,415.7z M-183.3,443l-28.7,11.9h-9.5l28.7-11.9
	L-183.3,443z M-178.7,443l8.6,0l-28.8,11.9h-8.6L-178.7,443z M-167.4,443.8l1.6,2.9l-19.8,8.2h-8.6L-167.4,443.8z M-165,448.3
	l1.6,2.9l-9.1,3.7h-8.6L-165,448.3z M-197.4,389.2l6,11l-12.1,0L-197.4,389.2z M-232.4,453.7l0.1,0.3l26.3-10.9l8.6,0l-28.7,11.9h-7
	L-232.4,453.7z M-167.9,454.9l5.3-2.2l1.2,2.2H-167.9z"/>
</svg>
