<?xml version="1.0" encoding="utf-8"?>
<!-- Generator: Adobe Illustrator 19.0.0, SVG Export Plug-In . SVG Version: 6.00 Build 0)  -->
<svg version="1.0"
	 id="Layer_1" xmlns:rdf="http://www.w3.org/1999/02/22-rdf-syntax-ns#" xmlns:svg="http://www.w3.org/2000/svg" xmlns:inkscape="http://www.inkscape.org/namespaces/inkscape" xmlns:sodipodi="http://sodipodi.sourceforge.net/DTD/sodipodi-0.dtd" xmlns:cc="http://creativecommons.org/ns#" xmlns:dc="http://purl.org/dc/elements/1.1/"
	 xmlns="http://www.w3.org/2000/svg" xmlns:xlink="http://www.w3.org/1999/xlink" x="0px" y="0px" viewBox="-222 396.4 50 50"
	 style="enable-background:new -222 396.4 50 50;" xml:space="preserve">
<g transform="translate(0,-952.3622)">
	<path d="M-199.7,1366.9v3h5.9v-3h-0.8v2.2h-4.3v-2.2H-199.7z"/>
	<path d="M-196.8,1363.7c-0.9,0-1.7,0.8-1.7,1.7c0,0.9,0.8,1.7,1.7,1.7s1.7-0.8,1.7-1.7C-195.1,1364.4-195.9,1363.7-196.8,1363.7z
		 M-196.8,1364.5c0.5,0,0.9,0.4,0.9,0.9c0,0.5-0.4,0.9-0.9,0.9c-0.5,0-0.9-0.4-0.9-0.9C-197.7,1364.9-197.3,1364.5-196.8,1364.5z"/>
	<path d="M-196.8,1360.4c-3.5,0-6.4,2.9-6.4,6.4c0,3.5,2.9,6.4,6.4,6.4c3.5,0,6.4-2.9,6.4-6.4
		C-190.4,1363.3-193.3,1360.4-196.8,1360.4z M-196.8,1361.2c3.1,0,5.6,2.5,5.6,5.6c0,3.1-2.5,5.6-5.6,5.6s-5.6-2.5-5.6-5.6
		C-202.4,1363.7-199.9,1361.2-196.8,1361.2z"/>
	<path d="M-209.1,1356.4v0.4v32.3h24.7v-32.7H-209.1z M-208.3,1357.2h23.1v31.1h-23.1V1357.2z"/>
	<path d="M-204.7,1376.3v0.8h15.9v-0.8H-204.7z"/>
	<path d="M-204.7,1380.3v0.8h15.9v-0.8H-204.7z"/>
	<path d="M-204.7,1384.3v0.8h15.9v-0.8H-204.7z"/>
</g>
</svg>
