<?xml version="1.0" encoding="utf-8"?>
<!-- Generator: Adobe Illustrator 19.0.0, SVG Export Plug-In . SVG Version: 6.00 Build 0)  -->
<svg version="1.0" id="Layer_1" xmlns="http://www.w3.org/2000/svg" xmlns:xlink="http://www.w3.org/1999/xlink" x="0px" y="0px"
	 viewBox="-247 371.4 100 100" style="enable-background:new -247 371.4 100 100;" xml:space="preserve">
<path d="M-180.6,431.6c-5.3-1-10.1-4.3-14.9-8c-0.2,0.3-0.4,0.6-0.7,0.9c-0.1,0.1-0.2,0.1-0.2,0.2c4.9,3.8,10,7.4,15.7,8.4
	C-180.7,432.5-180.7,432-180.6,431.6z"/>
<path d="M-160.3,423.9c-4.4,3.9-8.5,6.2-12.1,7.2c0.2,0.5,0.2,0.9,0.2,1.4c3.9-1.1,8.2-3.5,12.9-7.6c-0.2-0.1-0.3-0.2-0.4-0.4
	C-160,424.4-160.1,424.2-160.3,423.9z"/>
<path d="M-234.7,418.3c0.2,0.1,0.3,0.3,0.5,0.4c0.2,0.2,0.3,0.4,0.5,0.6c3.4-2.9,6.6-4.8,9.5-5.8c-0.2-0.4-0.3-0.9-0.3-1.4
	C-227.7,413.2-231.1,415.1-234.7,418.3z"/>
<path d="M-202,418.3c-4.4-3.3-9-6.2-14.1-7c0.1,0.5,0.1,1,0,1.4c4.7,0.7,9,3.4,13.3,6.7C-202.7,419.1-202.4,418.7-202,418.3
	C-202.1,418.4-202.1,418.4-202,418.3z"/>
<path d="M-196.1,424.3c-1.7,1.7-4.4,1.7-6,0c-1.7-1.7-1.7-4.4,0-6c1.7-1.7,4.4-1.7,6,0C-194.4,420-194.4,422.7-196.1,424.3z
	 M-201.1,419.3c-1.1,1.1-1.1,2.9,0,3.9c1.1,1.1,2.9,1.1,3.9,0c1.1-1.1,1.1-2.9,0-3.9C-198.2,418.3-200,418.3-201.1,419.3z"/>
<path d="M-217.3,414.8c-1.7,1.7-4.4,1.7-6,0c-1.7-1.7-1.7-4.4,0-6c1.7-1.7,4.4-1.7,6,0C-215.6,410.5-215.6,413.2-217.3,414.8z
	 M-222.3,409.8c-1.1,1.1-1.1,2.9,0,3.9c1.1,1.1,2.9,1.1,3.9,0c1.1-1.1,1.1-2.9,0-3.9C-219.4,408.8-221.2,408.8-222.3,409.8z"/>
<path d="M-234.3,424.7c-1.7,1.7-4.4,1.7-6,0c-1.7-1.7-1.7-4.4,0-6c1.7-1.7,4.4-1.7,6,0C-232.6,420.3-232.6,423-234.3,424.7z
	 M-239.3,419.7c-1.1,1.1-1.1,2.9,0,3.9c1.1,1.1,2.9,1.1,3.9,0c1.1-1.1,1.1-2.9,0-3.9C-236.4,418.6-238.2,418.6-239.3,419.7z"/>
<path d="M-173.4,435.5c-1.7,1.7-4.4,1.7-6,0c-1.7-1.7-1.7-4.4,0-6c1.7-1.7,4.4-1.7,6,0C-171.8,431.1-171.8,433.8-173.4,435.5z
	 M-178.4,430.5c-1.1,1.1-1.1,2.9,0,3.9c1.1,1.1,2.9,1.1,3.9,0c1.1-1.1,1.1-2.9,0-3.9C-175.6,429.4-177.3,429.4-178.4,430.5z"/>
<path d="M-153.8,424.6c-1.7,1.7-4.4,1.7-6,0c-1.7-1.7-1.7-4.4,0-6c1.7-1.7,4.4-1.7,6,0C-152.2,420.2-152.2,422.9-153.8,424.6z
	 M-158.8,419.6c-1.1,1.1-1.1,2.9,0,3.9c1.1,1.1,2.9,1.1,3.9,0c1.1-1.1,1.1-2.9,0-3.9C-156,418.5-157.7,418.5-158.8,419.6z"/>
</svg>
