<?xml version="1.0" encoding="utf-8"?>
<!-- Generator: Adobe Illustrator 19.0.0, SVG Export Plug-In . SVG Version: 6.00 Build 0)  -->
<svg version="1.0" id="Layer_1" xmlns="http://www.w3.org/2000/svg" xmlns:xlink="http://www.w3.org/1999/xlink" x="0px" y="0px"
	 viewBox="-283 370.9 100 100" style="enable-background:new -283 370.9 100 100;" xml:space="preserve">
<path d="M-271.3,444.8v2.4v8.4h65v-12h-65V444.8z M-208.8,453.2h-60.2v-6V446h2.4v2.4h2.4V446h2.4v2.4h2.4V446h2.4v2.4h2.4V446h2.4
	v2.4h2.4V446h2.4v2.4h2.4V446h2.4v2.4h2.4V446h2.4v2.4h2.4V446h2.4v2.4h2.4V446h2.4v2.4h2.4V446h2.4v2.4h2.4V446h2.4v2.4h2.4V446
	h7.2V453.2z M-213.6,450.8v-2.4h2.4v2.4H-213.6z M-194.5,394.9l-3.6-7.2c-0.4-0.8-1.7-0.8-2.2,0l-3.6,7.2c-0.1,0.2-0.1,0.4-0.1,0.5
	V452c0,1,0.4,1.9,1.1,2.6s1.6,1.1,2.6,1.1h2.4c1,0,1.9-0.4,2.6-1.1s1.1-1.6,1.1-2.6v-56.5C-194.3,395.3-194.4,395.1-194.5,394.9z
	 M-199.1,391l1.7,3.3h-3.3L-199.1,391z M-196.7,396.7v51.7h-4.8v-51.7H-196.7z M-197.1,452.9c-0.2,0.2-0.5,0.4-0.9,0.4h-2.4
	c-0.3,0-0.6-0.1-0.9-0.4s-0.4-0.5-0.4-0.9v-1.2h4.8v1.2C-196.7,452.4-196.9,452.7-197.1,452.9z M-271.3,387.1V440h65v-45l-7.9-7.9
	H-271.3z M-213.6,391.2l3.1,3.1h-3.1V391.2z M-268.9,437.6v-48.1h52.9v7.2h7.2v40.9H-268.9z M-217.2,399.1h-46.9v33.7h48.1V422h2.4
	v-2.4h-2.4v-9.6h2.4v-2.4h-2.4v-6h2.4v-2.4h-2.4H-217.2z M-218.4,430.4h-43.3v-28.9h43.3V430.4z M-250.9,405.1h-7.2v7.2h7.2V405.1z
	 M-253.3,409.9h-2.4v-2.4h2.4V409.9z M-241.3,405.1h-7.2v7.2h7.2V405.1z M-243.7,409.9h-2.4v-2.4h2.4V409.9z M-231.6,405.1h-7.2v7.2
	h7.2V405.1z M-234,409.9h-2.4v-2.4h2.4V409.9z M-222,405.1h-7.2v7.2h7.2V405.1z M-224.4,409.9h-2.4v-2.4h2.4V409.9z M-231.6,414.7
	h-26.5v12h26.5V414.7z M-234,424.4h-21.7v-7.2h21.7V424.4z M-250.9,396.7h-7.2v-2.4h7.2V396.7z M-241.3,396.7h-7.2v-2.4h7.2V396.7z
	 M-231.6,396.7h-7.2v-2.4h7.2V396.7z M-222,396.7h-7.2v-2.4h7.2V396.7z M-222,417.1h-7.2v-2.4h7.2V417.1z M-222,422h-7.2v-2.4h7.2
	V422z M-225.6,426.8h-3.6v-2.4h3.6V426.8z M-248.5,422h-2.4v-2.4h2.4V422z M-243.7,422h-2.4v-2.4h2.4V422z M-238.8,422h-2.4v-2.4
	h2.4V422z"/>
</svg>
