<?xml version="1.0" encoding="utf-8"?>
<!-- Generator: Adobe Illustrator 19.0.0, SVG Export Plug-In . SVG Version: 6.00 Build 0)  -->
<svg version="1.0" id="Layer_1" xmlns="http://www.w3.org/2000/svg" xmlns:xlink="http://www.w3.org/1999/xlink" x="0px" y="0px"
	 viewBox="-247 371.4 100 100" style="enable-background:new -247 371.4 100 100;" xml:space="preserve">
<g transform="translate(0,-952.36218)">
	<path d="M-196.6,1343.3c-0.4,0.1-0.8,0.3-1,0.7l-33.6,58.4c-0.4,0.7-0.2,1.6,0.5,2c0.2,0.1,0.5,0.2,0.7,0.2h67.2
		c0.8,0,1.5-0.6,1.5-1.4c0-0.3-0.1-0.5-0.2-0.7l-33.6-58.4C-195.4,1343.5-196,1343.2-196.6,1343.3z M-196.4,1347.7l31,54h-62.1
		L-196.4,1347.7z"/>
</g>
<circle cx="-194.2" cy="419.4" r="3.7"/>
<circle cx="-216.1" cy="442.8" r="3.7"/>
<circle cx="-194.2" cy="438.4" r="3.7"/>
</svg>
