<?xml version="1.0" encoding="utf-8"?>
<!-- Generator: Adobe Illustrator 19.0.0, SVG Export Plug-In . SVG Version: 6.00 Build 0)  -->
<svg version="1.0" id="Layer_1" xmlns="http://www.w3.org/2000/svg" xmlns:xlink="http://www.w3.org/1999/xlink" x="0px" y="0px"
	 viewBox="-222 396.4 50 50" style="enable-background:new -222 396.4 50 50;" xml:space="preserve">
<style type="text/css">
	.st0{clip-path:url(#SVGID_2_);}
	.st1{clip-path:url(#SVGID_4_);}
	.st2{clip-path:url(#SVGID_10_);}
	.st3{clip-path:url(#SVGID_11_);}
	.st4{clip-path:url(#SVGID_12_);}
	.st5{clip-path:url(#SVGID_13_);}
	.st6{clip-path:url(#SVGID_14_);}
	.st7{clip-path:url(#SVGID_16_);}
	.st8{clip-path:url(#SVGID_22_);}
	.st9{clip-path:url(#SVGID_23_);}
	.st10{clip-path:url(#SVGID_24_);}
	.st11{clip-path:url(#SVGID_25_);}
	.st12{clip-path:url(#SVGID_26_);}
</style>
<g>
	<g>
		<path d="M-199.4,430.5h-20.2c-0.4,0-0.8-0.4-0.8-0.8v-20.2c0-0.4,0.4-0.8,0.8-0.8h20.2c0.4,0,0.8,0.4,0.8,0.8v20.2
			C-198.6,430.2-199,430.5-199.4,430.5z M-218.9,428.9h18.6v-18.6h-18.6V428.9z"/>
	</g>
	<path d="M-174.3,430.5h-20.2c-0.4,0-0.8-0.4-0.8-0.8v-20.2c0-0.4,0.4-0.8,0.8-0.8h20.2c0.4,0,0.8,0.4,0.8,0.8v20.2
		C-173.6,430.2-173.9,430.5-174.3,430.5z M-193.8,428.9h18.6v-18.6h-18.6V428.9z"/>
	<g>
		<g>
			<g>
				<defs>
					<rect id="SVGID_1_" x="-194.6" y="409.5" width="20.2" height="20.2"/>
				</defs>
				<clipPath id="SVGID_2_">
					<use xlink:href="#SVGID_1_"  style="overflow:visible;"/>
				</clipPath>
				<g class="st0">
					<g>
						<rect x="-179.9" y="405.2" transform="matrix(0.7067 0.7075 -0.7075 0.7067 239.6352 248.2288)" width="0.6" height="15.9"/>
					</g>
					<g>
						<rect x="-182.1" y="402.9" transform="matrix(0.7075 0.7067 -0.7067 0.7075 237.2113 248.6794)" width="0.6" height="15.9"/>
					</g>
					<g>
						<rect x="-184.4" y="400.7" transform="matrix(0.7075 0.7067 -0.7067 0.7075 234.9729 249.6081)" width="0.6" height="15.9"/>
					</g>
					<g>
						<rect x="-186.6" y="398.5" transform="matrix(0.7071 0.7071 -0.7071 0.7071 232.8239 250.773)" width="0.6" height="15.9"/>
					</g>
					<g>
						<rect x="-188.8" y="396.2" transform="matrix(0.7073 0.7069 -0.7069 0.7073 230.5408 251.5814)" width="0.6" height="15.9"/>
					</g>
					<g>
						<rect x="-196.5" y="410.3" transform="matrix(0.708 0.7063 -0.7063 0.708 233.5554 258.8029)" width="0.6" height="3.1"/>
					</g>
					<g>
						<rect x="-181" y="404.1" transform="matrix(0.7067 0.7075 -0.7075 0.7067 238.5148 248.6924)" width="0.6" height="15.9"/>
					</g>
					<g>
						<rect x="-183.2" y="401.8" transform="matrix(0.7075 0.7067 -0.7067 0.7075 236.0918 249.1431)" width="0.6" height="15.9"/>
					</g>
					<g>
						<rect x="-185.5" y="399.6" transform="matrix(0.7063 0.708 -0.708 0.7063 234.1299 250.8131)" width="0.6" height="15.9"/>
					</g>
					<g>
						<rect x="-187.7" y="397.3" transform="matrix(0.7077 0.7065 -0.7065 0.7077 231.573 250.8795)" width="0.6" height="15.9"/>
					</g>
					<g>
						<rect x="-190" y="395.1" transform="matrix(0.7071 0.7071 -0.7071 0.7071 229.4644 252.1643)" width="0.6" height="15.9"/>
					</g>
					<g>
						<rect x="-197.6" y="409.2" transform="matrix(0.7071 0.7071 -0.7071 0.7071 232.6211 259.7843)" width="0.6" height="3.1"/>
					</g>
				</g>
			</g>
		</g>
		<g>
			<g>
				<defs>
					<rect id="SVGID_3_" x="-194.6" y="409.5" width="20.2" height="20.2"/>
				</defs>
				<clipPath id="SVGID_4_">
					<use xlink:href="#SVGID_3_"  style="overflow:visible;"/>
				</clipPath>
				<g class="st1">
					<g>
						<g>
							<defs>
								<rect id="SVGID_5_" x="-194.6" y="409.5" width="20.2" height="20.2"/>
							</defs>
							<defs>
								<rect id="SVGID_6_" x="-194.6" y="409.5" width="20.2" height="20.2"/>
							</defs>
							<defs>
								<rect id="SVGID_7_" x="-194.6" y="409.5" width="20.2" height="20.2"/>
							</defs>
							<defs>
								<rect id="SVGID_8_" x="-194.6" y="409.5" width="20.2" height="20.2"/>
							</defs>
							<defs>
								<rect id="SVGID_9_" x="-194.6" y="409.5" width="20.2" height="20.2"/>
							</defs>
							<clipPath id="SVGID_10_">
								<use xlink:href="#SVGID_5_"  style="overflow:visible;"/>
							</clipPath>
							<clipPath id="SVGID_11_" class="st2">
								<use xlink:href="#SVGID_6_"  style="overflow:visible;"/>
							</clipPath>
							<clipPath id="SVGID_12_" class="st3">
								<use xlink:href="#SVGID_7_"  style="overflow:visible;"/>
							</clipPath>
							<clipPath id="SVGID_13_" class="st4">
								<use xlink:href="#SVGID_8_"  style="overflow:visible;"/>
							</clipPath>
							<clipPath id="SVGID_14_" class="st5">
								<use xlink:href="#SVGID_9_"  style="overflow:visible;"/>
							</clipPath>
							<g class="st6">
								<g>
									<g>
										
											<rect x="-168.7" y="416.4" transform="matrix(0.7071 0.7071 -0.7071 0.7071 250.7381 243.3547)" width="0.6" height="15.9"/>
									</g>
									<g>
										
											<rect x="-170.9" y="414.1" transform="matrix(0.7063 0.708 -0.708 0.7063 248.7098 244.7833)" width="0.6" height="15.9"/>
									</g>
									<g>
										
											<rect x="-173.2" y="411.9" transform="matrix(0.7067 0.7075 -0.7075 0.7067 246.3585 245.4461)" width="0.6" height="15.9"/>
									</g>
									<g>
										
											<rect x="-175.4" y="409.7" transform="matrix(0.7071 0.7071 -0.7071 0.7071 244.0207 246.1358)" width="0.6" height="15.9"/>
									</g>
									<g>
										
											<rect x="-177.6" y="407.4" transform="matrix(0.7071 0.7071 -0.7071 0.7071 241.7807 247.0628)" width="0.6" height="15.9"/>
									</g>
									<g>
										
											<rect x="-185.3" y="421.5" transform="matrix(0.7075 0.7067 -0.7067 0.7075 244.8425 254.438)" width="0.6" height="3.1"/>
									</g>
									<g>
										
											<rect x="-169.8" y="415.3" transform="matrix(0.7067 0.7075 -0.7075 0.7067 249.7205 244.0527)" width="0.6" height="15.9"/>
									</g>
									<g>
										<rect x="-172" y="413" transform="matrix(0.7071 0.7071 -0.7071 0.7071 247.3799 244.7432)" width="0.6" height="15.9"/>
									</g>
									<g>
										
											<rect x="-174.3" y="410.8" transform="matrix(0.7075 0.7067 -0.7067 0.7075 245.0423 245.4319)" width="0.6" height="15.9"/>
									</g>
									<g>
										
											<rect x="-176.5" y="408.5" transform="matrix(0.7067 0.7075 -0.7075 0.7067 242.9976 246.8349)" width="0.6" height="15.9"/>
									</g>
									<g>
										
											<rect x="-178.8" y="406.3" transform="matrix(0.7075 0.7067 -0.7067 0.7075 240.567 247.2874)" width="0.6" height="15.9"/>
									</g>
									<g>
										
											<rect x="-186.4" y="420.3" transform="matrix(0.7067 0.7075 -0.7075 0.7067 243.9122 255.3907)" width="0.6" height="3.1"/>
									</g>
								</g>
							</g>
							<g class="st6">
								<g>
									<g>
										<defs>
											<rect id="SVGID_15_" x="-194.6" y="409.5" width="20.2" height="20.2"/>
										</defs>
										<clipPath id="SVGID_16_">
											<use xlink:href="#SVGID_15_"  style="overflow:visible;"/>
										</clipPath>
										<g class="st7">
											<g>
												<g>
													<g>
														
															<rect x="-191.1" y="416.4" transform="matrix(0.7075 0.7067 -0.7067 0.7075 244.0861 258.9419)" width="0.6" height="15.9"/>
													</g>
													<g>
														
															<rect x="-193.3" y="414.1" transform="matrix(0.7075 0.7067 -0.7067 0.7075 241.8495 259.8667)" width="0.6" height="15.9"/>
													</g>
													<g>
														
															<rect x="-195.6" y="411.9" transform="matrix(0.708 0.7063 -0.7063 0.708 239.5076 260.5192)" width="0.6" height="15.9"/>
													</g>
													<g>
														
															<rect x="-197.8" y="409.7" transform="matrix(0.7071 0.7071 -0.7071 0.7071 237.4613 261.9703)" width="0.6" height="15.9"/>
													</g>
													<g>
														
															<rect x="-200" y="407.4" transform="matrix(0.7071 0.7071 -0.7071 0.7071 235.222 262.8979)" width="0.6" height="15.9"/>
													</g>
													<g>
														
															<rect x="-207.7" y="421.5" transform="matrix(0.7075 0.7067 -0.7067 0.7075 238.2924 270.2648)" width="0.6" height="3.1"/>
													</g>
													<g>
														
															<rect x="-192.2" y="415.2" transform="matrix(0.708 0.7063 -0.7063 0.708 242.8613 259.1279)" width="0.6" height="15.9"/>
													</g>
													<g>
														
															<rect x="-194.4" y="413" transform="matrix(0.708 0.7063 -0.7063 0.708 240.6254 260.0552)" width="0.6" height="15.9"/>
													</g>
													<g>
														
															<rect x="-196.7" y="410.8" transform="matrix(0.7075 0.7067 -0.7067 0.7075 238.4924 261.2595)" width="0.6" height="15.9"/>
													</g>
													<g>
														
															<rect x="-198.9" y="408.5" transform="matrix(0.7075 0.7067 -0.7067 0.7075 236.2549 262.1867)" width="0.6" height="15.9"/>
													</g>
													<g>
														
															<rect x="-201.2" y="406.3" transform="matrix(0.708 0.7063 -0.7063 0.708 233.9198 262.8374)" width="0.6" height="15.9"/>
													</g>
													<g>
														
															<rect x="-208.8" y="420.3" transform="matrix(0.7075 0.7067 -0.7067 0.7075 237.1738 270.7294)" width="0.6" height="3.1"/>
													</g>
												</g>
											</g>
											<g>
												<g>
													<g>
														<defs>
															<rect id="SVGID_17_" x="-194.6" y="409.5" width="20.2" height="20.2"/>
														</defs>
														<defs>
															<rect id="SVGID_18_" x="-194.6" y="409.5" width="20.2" height="20.2"/>
														</defs>
														<defs>
															<rect id="SVGID_19_" x="-194.6" y="409.5" width="20.2" height="20.2"/>
														</defs>
														<defs>
															<rect id="SVGID_20_" x="-194.6" y="409.5" width="20.2" height="20.2"/>
														</defs>
														<defs>
															<rect id="SVGID_21_" x="-194.6" y="409.5" width="20.2" height="20.2"/>
														</defs>
														<clipPath id="SVGID_22_">
															<use xlink:href="#SVGID_17_"  style="overflow:visible;"/>
														</clipPath>
														<clipPath id="SVGID_23_" class="st8">
															<use xlink:href="#SVGID_18_"  style="overflow:visible;"/>
														</clipPath>
														<clipPath id="SVGID_24_" class="st9">
															<use xlink:href="#SVGID_19_"  style="overflow:visible;"/>
														</clipPath>
														<clipPath id="SVGID_25_" class="st10">
															<use xlink:href="#SVGID_20_"  style="overflow:visible;"/>
														</clipPath>
														<clipPath id="SVGID_26_" class="st11">
															<use xlink:href="#SVGID_21_"  style="overflow:visible;"/>
														</clipPath>
														<g class="st12">
															<g>
																<g>
																	<g>
																		
																			<rect x="-179.9" y="427.6" transform="matrix(0.7075 0.7067 -0.7067 0.7075 255.2752 254.3014)" width="0.6" height="15.9"/>
																	</g>
																	<g>
																		
																			<rect x="-182.1" y="425.3" transform="matrix(0.7075 0.7067 -0.7067 0.7075 253.0368 255.2311)" width="0.6" height="15.9"/>
																	</g>
																	<g>
																		
																			<rect x="-184.4" y="423.1" transform="matrix(0.7071 0.7071 -0.7071 0.7071 250.8977 256.404)" width="0.6" height="15.9"/>
																	</g>
																	<g>
																		
																			<rect x="-186.6" y="420.9" transform="matrix(0.7071 0.7071 -0.7071 0.7071 248.6585 257.3316)" width="0.6" height="15.9"/>
																	</g>
																	<g>
																		
																			<rect x="-188.8" y="418.6" transform="matrix(0.7067 0.7075 -0.7075 0.7067 246.5141 258.5069)" width="0.6" height="15.9"/>
																	</g>
																	<g>
																		
																			<rect x="-196.5" y="432.7" transform="matrix(0.7067 0.7075 -0.7075 0.7067 249.6701 266.1321)" width="0.6" height="3.1"/>
																	</g>
																	<g>
																		
																			<rect x="-181" y="426.5" transform="matrix(0.7067 0.7075 -0.7075 0.7067 254.3582 255.2607)" width="0.6" height="15.9"/>
																	</g>
																	<g>
																		
																			<rect x="-183.2" y="424.2" transform="matrix(0.7075 0.7067 -0.7067 0.7075 251.9185 255.6929)" width="0.6" height="15.9"/>
																	</g>
																	<g>
																		
																			<rect x="-185.5" y="422" transform="matrix(0.7063 0.708 -0.708 0.7063 249.9834 257.3901)" width="0.6" height="15.9"/>
																	</g>
																	<g>
																		
																			<rect x="-187.7" y="419.7" transform="matrix(0.7071 0.7071 -0.7071 0.7071 247.5386 257.7956)" width="0.6" height="15.9"/>
																	</g>
																	<g>
																		
																			<rect x="-190" y="417.5" transform="matrix(0.7071 0.7071 -0.7071 0.7071 245.2997 258.7232)" width="0.6" height="15.9"/>
																	</g>
																	<g>
																		
																			<rect x="-197.6" y="431.5" transform="matrix(0.7067 0.7075 -0.7075 0.7067 248.5493 266.5969)" width="0.6" height="3.1"/>
																	</g>
																</g>
															</g>
														</g>
														<g class="st12">
															<path d="M-174.3,430.6h-20.2c-0.5,0-0.9-0.4-0.9-0.9v-20.2c0-0.5,0.4-0.9,0.9-0.9h20.2c0.5,0,0.9,0.4,0.9,0.9v20.2
																C-173.5,430.2-173.9,430.6-174.3,430.6z M-193.7,428.9h18.5v-18.5h-18.5V428.9z"/>
														</g>
													</g>
												</g>
											</g>
										</g>
									</g>
								</g>
							</g>
						</g>
					</g>
				</g>
			</g>
		</g>
	</g>
</g>
</svg>
