<?xml version="1.0" encoding="utf-8"?>
<!-- Generator: Adobe Illustrator 19.0.0, SVG Export Plug-In . SVG Version: 6.00 Build 0)  -->
<svg version="1.0" id="Layer_1" xmlns="http://www.w3.org/2000/svg" xmlns:xlink="http://www.w3.org/1999/xlink" x="0px" y="0px"
	 viewBox="-247 371.4 100 100" style="enable-background:new -247 371.4 100 100;" xml:space="preserve">
<g>
	<path d="M-157.7,454.7c0.4-2.2,0-3.9-1.1-5.1c-0.8-1-2.1-1.4-3.5-1.4c-4.4,0.2-6.9-0.6-11-2.4c-1.9-0.8-2.6-4.7-2-10.8
		c0.5-5,1.7-9.8,1.7-9.9c0.1-0.5-0.1-1-0.5-1.2c-2.1-1.2-4.4-1.9-6.8-2.2v-2.5c0-0.6-0.5-1.1-1.1-1.1h-3.7c-0.5,0-1,0.4-1.1,0.9
		l-0.5,2.8c-3.9,0.6-6.5,2.1-6.6,2.2c-0.3,0.2-0.5,0.5-0.5,0.9c-0.8,10.7,0.4,27.4,0.4,27.5l0.1,3.6v0.1v0.1l0,0l0,0l0.9,4.1
		c0.1,0.5,0.5,0.8,1,0.8h5.7c0.4,0,0.8-0.2,1-0.6l0.9-1.8h0.1c1.8,0.7,3.6,1.4,6.2,1.9c2.1,0.3,5,0.5,7.9,0.5
		c5.6,0,11.2-0.4,11.5-0.4s0.6-0.2,0.7-0.4c0.2-0.2,0.3-0.5,0.2-0.8C-157.7,458.1-157.9,455.5-157.7,454.7z M-162.2,450.3
		c0.8,0,1.4,0.2,1.8,0.6c0.6,0.7,0.8,1.9,0.5,3.4c0,0.1,0,0.3,0,0.4c-0.1,0-0.2,0-0.3,0c-0.1,0-9.5,2.4-17.2-0.9
		c-2.6-1.2-4.9-1.9-6.8-2.4l-0.4-1.9c3.9-0.1,6.1-1.7,7.9-4.6c0.5,1.3,1.4,2.4,2.5,2.9C-170,449.5-167.2,450.6-162.2,450.3z
		 M-191.8,451c-0.1-1-0.1-2.4-0.2-4.2c1.1,1.2,2.8,2.3,5.3,2.6l0.3,1.6C-188.9,450.6-190.7,450.8-191.8,451z M-175.8,425.5
		c-0.7,2.8-2.3,10.6-1.6,16.3c-1.8,3.7-3.4,5.5-7.2,5.6l1.7-20.7h1c0.6,0,1.1-0.5,1.1-1.1v-1.7
		C-179.1,424.2-177.4,424.7-175.8,425.5z M-183,420.4v2.2l0,0c0,0.1,0,0.2,0,0.2v1.7h-2.5l0.8-4.2h1.7V420.4z M-192.2,425.6
		c0.8-0.4,2.4-1.1,4.6-1.5l-0.3,1.3c-0.1,0.3,0,0.6,0.2,0.9c0.2,0.2,0.5,0.4,0.8,0.4h1.9l-1.7,20.5c-4.6-0.9-5.4-4.7-5.5-5.2
		C-192.4,436.8-192.5,430.6-192.2,425.6z M-186.8,459h-4.1l-0.4-1.9c2.1,0.1,3.6,0.5,5,1L-186.8,459z M-177.6,458.5
		c-2.4-0.4-4.1-1.1-5.8-1.7c-2.2-0.9-4.5-1.8-8.2-1.9l-0.1-1.7c1.5-0.3,5.8-0.7,13.5,2.7c3.5,1.5,7.3,2,10.5,2
		c3.9,0,6.9-0.7,7.8-0.9c0,0.6,0.1,1.2,0.1,1.7C-163,458.8-172.7,459.3-177.6,458.5z"/>
	<path d="M-202.8,449.5c5.2-6.8,0.6-14.1,0.5-14.2c-0.2-0.3-0.4-0.4-0.8-0.5c-0.3,0-0.6,0.1-0.9,0.3l-15.5,13.8
		c-2.1-0.5-2.8-4.2-2.8-4.2c-0.1-0.4-0.3-0.7-0.7-0.8s-0.8-0.1-1.1,0.2c-3.4,2.9-11.5,9.9-12.2,11.5c-0.9,2.1,1.8,4.3,2.4,4.7
		c0.2,0.1,0.4,0.2,0.6,0.2h13.6c0.3,0,0.5-0.1,0.7-0.3c3.6-3.1,6.9-5.4,9.5-7c1,3,0,6.8,0,6.8c-0.1,0.3,0,0.7,0.2,0.9
		c0.2,0.3,0.5,0.4,0.9,0.4h3.3c0.3,0,0.6-0.1,0.8-0.4c0.2-0.2,0.3-0.5,0.3-0.8C-204.5,456.9-203.1,450.8-202.8,449.5z M-220.1,458.3
		h-12.8c-0.9-0.7-1.5-1.6-1.4-1.9c0.4-0.7,3.3-3.4,6.8-6.6c0.2,1,0.8,2.2,1.9,3.2c-0.1,0.3-0.1,0.6-0.1,0.9c0,1.6,1.3,2.9,2.9,2.9
		c1.6,0,2.9-1.3,2.9-2.9c0-1.6-1.3-2.9-2.9-2.9c-0.5,0-1,0.2-1.4,0.4c-1.8-1.6-1.1-3.2-0.9-3.7c0.4-0.3,0.7-0.6,1.1-0.9
		c0.6,1.8,2,4.2,4.8,4.3c0.3,0,0.5-0.1,0.7-0.3l15-13.2c0.9,2,2.2,6.3-1,10.5C-205.9,448.8-212.2,451.5-220.1,458.3z M-223.5,453.9
		c0-0.4,0.4-0.8,0.8-0.8c0.4,0,0.8,0.4,0.8,0.8c0,0.4-0.4,0.8-0.8,0.8C-223.1,454.7-223.5,454.4-223.5,453.9z M-207.2,459.3
		c0.3-1.6,0.5-4.4-0.3-6.9c0-0.1-0.1-0.2-0.1-0.3c0.9-0.5,1.7-0.9,2.3-1.2c-0.4,2.2-1.1,5.7-1,8.3h-0.9V459.3z"/>
	<path d="M-179.7,407c-0.4-0.4-1.1-0.4-1.5,0l-1.6,1.6v-11.7c0-9.6-7.8-17.3-17.3-17.3c-9.6,0-17.3,7.8-17.3,17.3l0,0v35.8l-1.6-1.6
		c-0.4-0.4-1.1-0.4-1.5,0s-0.4,1.1,0,1.5l3.4,3.4c0.2,0.2,0.5,0.3,0.8,0.3l0,0l0,0c0.3,0,0.5-0.1,0.8-0.3l3.4-3.4
		c0.4-0.4,0.4-1.1,0-1.5c-0.4-0.4-1.1-0.4-1.5,0l-1.6,1.6v-35.8l0,0c0-8.4,6.8-15.2,15.2-15.2s15,6.8,15,15.2v11.7l-1.6-1.6
		c-0.4-0.4-1.1-0.4-1.5,0c-0.4,0.4-0.4,1.1,0,1.5l3.4,3.4c0.2,0.2,0.5,0.3,0.8,0.3l0,0l0,0c0.3,0,0.5-0.1,0.8-0.3l3.4-3.4
		C-179.3,408.1-179.3,407.4-179.7,407z"/>
</g>
</svg>
