<?xml version="1.0" encoding="utf-8"?>
<!-- Generator: Adobe Illustrator 19.0.0, SVG Export Plug-In . SVG Version: 6.00 Build 0)  -->
<svg version="1.1" id="Layer_1" xmlns="http://www.w3.org/2000/svg" xmlns:xlink="http://www.w3.org/1999/xlink" x="0px" y="0px"
	 viewBox="0 0 562.5 402" style="enable-background:new 0 0 562.5 402;" xml:space="preserve">
<style type="text/css">
	.st0{fill:#FFFFFF;}
</style>
<g>
	<path class="st0" d="M518.8,27.9H347.5c-24.7-1-49.5,0-74.2-0.1c-5.1,0-9.2,2.3-11.8,6.5c-2.8,4.6-4.1,9.3-4,14c0,0,0,0.1,0,0.1
		v0.3c0,1.6,0.2,3.2,0.5,4.7c0.5,2.3,1.2,4.7,2.3,7c3.3,7.4,9.9,8.8,16.9,8.9c0.3,0,0.6,0,0.9,0h69.5c4.5,0,9.1,0.4,13.6,1
		c39.5,5.9,69.4,40.8,68.6,80c-1,47.5-37.8,83.5-85.4,83.6c-22.6,0-45.2-0.1-67.8,0c-10.2,0-16.2,4.2-17.9,13.4
		c-0.9,4.8-0.9,10,0,14.8c1.7,8.9,7.9,13.3,17.1,13.3c12,0,24.1,0.2,36.1-0.1c11.6-0.2,22.3,2.7,31.5,9.5
		c8.9,6.6,17.5,13.9,25.4,21.7c13.3,13.1,25.5,27.2,38.9,40.2c15.6,15.1,33.4,26.8,54.7,32.4c11,2.9,18.2-0.7,21.6-11.5
		c1.2-3.8,1.7-8,1.7-12.1c0-8.8-4.3-13.3-12.4-16.6c-8.1-3.2-16.5-6.6-23.5-11.6c-9.6-6.9-18.3-15.2-26.7-23.5
		c-11.5-11.5-22.4-23.6-33.8-35.8c1-0.5,1.6-0.8,2.3-1.1c54.5-22.9,85-74.4,78-133.3c-2.9-24.7-13.2-46.8-28.6-64.3h77.9
		c11.4,0,20.6-9.2,20.6-20.6v-0.3C539.4,37.1,530.2,27.9,518.8,27.9z"/>
	<circle class="st0" cx="518" cy="361.1" r="20.3"/>
</g>
<path class="st0" d="M224.9,254.1c-4.8-9.8-11.4-18.7-19.6-26.8c-8.2-8.1-17.8-15.4-28.7-22.1s-22.5-13-34.6-19
	c-11.9-5.9-22.3-11.2-31.4-16.1c-9.1-4.9-16.8-10-23.1-15.2c-6.3-5.2-11.1-11-14.4-17.3c-3.2-6.3-4.9-13.8-4.9-22.5
	c0-9.3,2.1-17.2,6.4-23.7c4.3-6.5,9.8-11.8,16.6-15.9c6.8-4.1,14.6-7.1,23.3-8.9c8.5-1.8,16.9-2.7,25.4-2.7c0.7,0.1,1.5,0.2,2.3,0.2
	h72c0.1,0,0.2,0,0.2,0c2.3,0,3.6,0,3.6,0v-0.4c8.1-1.8,14.2-9,14.2-17.6c0-9.9-8.1-18-18-18h-56.2c-4.3-0.2-42.5,1.6-56.6,5.2
	c-14.2,3.6-26.8,9.2-37.9,16.6c-11.1,7.4-20,16.9-26.8,28.4c-6.8,11.5-10.2,25-10.2,40.5c0,12.7,2.2,23.7,6.5,33.1
	c4.3,9.4,10.3,17.8,17.9,25.3c7.6,7.4,16.5,14.2,26.8,20.4c10.3,6.2,21.4,12.3,33.2,18.3c11.2,5.7,21.7,11.1,31.4,16.3
	c9.7,5.1,18.2,10.5,25.3,16.1c7.1,5.6,12.7,11.8,16.7,18.6c4,6.8,6.1,14.8,6.1,24c0,17.1-6.1,30.2-18.2,39.3
	c-12.1,9.1-30.4,13.6-54.9,13.6c-7.1,0-72.9-0.4-72.9-0.4c-9.9,0-18,8.1-18,18c0,9.9,8.1,18,18,18h57.3c0.4,0,0.8,0,1.1-0.1
	c3,0.2,5.8,0.3,8.2,0.3c16.1,0,31.5-1.6,46-4.9c14.6-3.2,27.4-8.5,38.6-15.8c11.2-7.3,20-16.7,26.6-28.4c6.6-11.6,9.8-25.8,9.8-42.6
	C232.1,275.1,229.7,263.9,224.9,254.1z"/>
</svg>
