<?xml version="1.0" encoding="utf-8"?>
<!-- Generator: Adobe Illustrator 19.0.0, SVG Export Plug-In . SVG Version: 6.00 Build 0)  -->
<svg version="1.0" id="Layer_1" xmlns="http://www.w3.org/2000/svg" xmlns:xlink="http://www.w3.org/1999/xlink" x="0px" y="0px"
	 viewBox="-247 371.4 100 100" style="enable-background:new -247 371.4 100 100;" xml:space="preserve">
<g>
	<g>
		<path d="M-197.1,445.1c-10.4,0-20.7-2.7-21.2-2.8c-0.8-0.2-1.3-1-1.1-1.8s1-1.3,1.8-1.1c0.1,0,14.9,3.9,26.4,2.4
			c9.2-1.2,11.6-1.5,16-1.6c2.9,0,4.1-1.3,4.2-2.3c0.1-0.8-0.4-1.6-1.3-1.9c-2.8-0.9-6.9-1.2-8.9-0.5c-2.5,0.8-6.1,0.2-9.3-1.6
			c-3.6-2.1-6.1-5.3-6.9-9.1c-0.5-2.4,0.5-5.4,2.8-8c2.8-3.3,8.3-6.7,15.1-6.2c1.5,0.1,3,0.4,4.3,0.7c4.1,0.8,4.9,0.7,5.3-1
			c-0.3-0.7-2.6-2.2-5.1-2.9c-5.5-1.6-9.9-2.4-12.2-2.1c-0.9,0.2-8.5,3.7-10.8,5.2c-0.7,0.5-1.6,0.3-2.1-0.4s-0.3-1.6,0.4-2.1
			c2.2-1.4,10.7-5.5,12.1-5.6c3.4-0.5,9.2,0.9,13.4,2.2c0.1,0,8.2,2.5,7.2,6.4c-1.2,4.8-5.5,4-8.8,3.4c-1.3-0.2-2.6-0.5-3.9-0.6
			c-5.7-0.4-10.3,2.4-12.6,5.1c-1.6,1.9-2.4,4-2.1,5.4c0.9,4,3.8,6.2,5.5,7.1c2.8,1.6,5.5,1.8,6.9,1.4c2.9-1,7.7-0.5,10.7,0.5
			c2.3,0.7,3.7,2.9,3.3,5.2c-0.3,2.2-2.4,4.8-7.2,4.8c-4.2,0.1-6.6,0.4-15.6,1.6C-192.8,445-195,445.1-197.1,445.1z"/>
		<path d="M-206.2,410.7c-0.3,0-0.5-0.1-0.8-0.2c-0.7-0.4-0.9-1.3-0.5-2.1c3.6-6.1,15.4-11.8,17.3-12.1c3.2-0.4,6.5,3,8.7,5.3
			c0.4,0.4,0.8,0.8,1.1,1.1c0.6,0.6,0.6,1.5,0.1,2.1c-0.6,0.6-1.5,0.6-2.1,0.1c-0.3-0.3-0.7-0.7-1.2-1.2c-1.4-1.5-4.4-4.6-6.1-4.4
			c-1.3,0.3-12,5.5-15.1,10.7C-205.2,410.4-205.7,410.7-206.2,410.7z"/>
		<path d="M-227.2,426c-0.2,0-0.3,0-0.5-0.1c-0.8-0.3-1.2-1.1-0.9-1.9c0.1-0.4,3.6-9.9,9.7-15.8c0.9-0.9,6.1-5.3,11.9-8.7
			c5-3,6.3-2.7,6.8-2.6c1.9,0.5,4.1,2.9,4.5,3.4c0.5,0.6,0.5,1.6-0.1,2.1s-1.6,0.5-2.1-0.1c-0.9-1-2.2-2.1-2.9-2.4
			c-0.5,0.1-2.1,0.7-4.7,2.2c-5.5,3.2-10.5,7.4-11.3,8.3c-5.6,5.4-8.9,14.6-8.9,14.6C-226,425.6-226.6,426-227.2,426z"/>
	</g>
	<g>
		<path d="M-164.1,422.9l-2.5-1.1l-0.5-1.7l1.6-2.6l-1.5-1.8l-0.3,0.1l-2.5,1l-1.6-0.8l-0.7-3l-2.4-0.2l-0.2,0.3l-1.1,2.4l-1.7,0.5
			l-2.6-1.6l-1.8,1.5l0.1,0.3l1,2.5l-0.8,1.6l-3,0.7l-0.2,2.4l0.3,0.1l2.5,1.1l0.5,1.7l-1.6,2.6l1.5,1.8l0.3-0.1l2.5-1l1.6,0.8
			l0.7,3l2.4,0.2l0.2-0.3l1.1-2.4l1.7-0.5l2.6,1.6l1.9-1.5l-0.1-0.3l-1-2.5l0.8-1.6l3-0.7l0.2-2.4L-164.1,422.9z M-172.2,425.4
			c-1.3,1.1-3.2,0.9-4.3-0.4s-0.9-3.2,0.4-4.3c1.3-1.1,3.2-0.9,4.3,0.4S-170.9,424.3-172.2,425.4z"/>
	</g>
</g>
</svg>
