<?xml version="1.0" encoding="utf-8"?>
<!-- Generator: Adobe Illustrator 19.0.0, SVG Export Plug-In . SVG Version: 6.00 Build 0)  -->
<svg version="1.0"
	 id="Layer_1" xmlns:rdf="http://www.w3.org/1999/02/22-rdf-syntax-ns#" xmlns:svg="http://www.w3.org/2000/svg" xmlns:inkscape="http://www.inkscape.org/namespaces/inkscape" xmlns:sodipodi="http://sodipodi.sourceforge.net/DTD/sodipodi-0.dtd" xmlns:cc="http://creativecommons.org/ns#" xmlns:dc="http://purl.org/dc/elements/1.1/"
	 xmlns="http://www.w3.org/2000/svg" xmlns:xlink="http://www.w3.org/1999/xlink" x="0px" y="0px" viewBox="-247 371.4 100 100"
	 style="enable-background:new -247 371.4 100 100;" xml:space="preserve">
<g transform="translate(0,-952.36218)">
	<path d="M-181.1,1352.9c0.1,0.5,0.6,0.9,1.1,0.9h15.5l-31.6,29.7l-15.2-9.5c0,0,0,0,0,0l0,0c-0.2-0.1-0.4-0.2-0.7-0.2
		c-0.2,0-0.4,0.1-0.6,0.3l-20,18c-0.5,0.3-0.6,1.1-0.2,1.5c0.4,0.4,1.2,0.4,1.5,0l19.4-17.5l15.3,9.6c0.4,0.3,0.9,0.2,1.2-0.1
		l32.3-30.3v15.6c0,0.5,0.5,1,1,1s1-0.5,1-1v-18c0-0.5-0.5-1-1-1h-18C-180.6,1351.7-181.1,1352-181.1,1352.9L-181.1,1352.9z"/>
</g>
</svg>
