<?xml version="1.0" encoding="utf-8"?>
<!-- Generator: Adobe Illustrator 19.0.0, SVG Export Plug-In . SVG Version: 6.00 Build 0)  -->
<svg version="1.0" id="Layer_1" xmlns="http://www.w3.org/2000/svg" xmlns:xlink="http://www.w3.org/1999/xlink" x="0px" y="0px"
	 viewBox="-247 371.4 100 100" style="enable-background:new -247 371.4 100 100;" xml:space="preserve">
<style type="text/css">
	.st0{fill:none;stroke:#000000;stroke-linecap:round;stroke-linejoin:round;stroke-miterlimit:10;}
</style>
<path class="st0" d="M-232,386.7v8.4h6.3l1.6-3.3c0.3-0.5,0.9-0.9,1.5-0.9h10.5c0.6,0,1.3,0.4,1.5,0.9l1.6,3.3h12.6v-8.4H-232z"/>
<path class="st0" d="M-209,395.1L-209,395.1l-1.6-3.3c-0.3-0.5-0.9-0.9-1.5-0.9h-10.5c-0.6,0-1.3,0.4-1.5,0.9l-1.6,3.3l0,0h-6.3
	v62.8h35.6v-62.8H-209z"/>
<rect x="-232" y="401.4" class="st0" width="6.3" height="56.5"/>
<rect x="-232" y="401.4" class="st0" width="6.3" height="6.3"/>
<rect x="-221.5" y="402.9" class="st0" width="8.4" height="3.1"/>
<rect x="-209" y="402.9" class="st0" width="12.6" height="3.1"/>
<rect x="-213.2" y="409.2" class="st0" width="16.7" height="3.1"/>
<rect x="-213.2" y="415.5" class="st0" width="4.2" height="3.1"/>
<rect x="-204.8" y="415.5" class="st0" width="8.4" height="3.1"/>
<rect x="-213.2" y="421.8" class="st0" width="16.7" height="3.1"/>
<rect x="-221.5" y="428.1" class="st0" width="4.2" height="3.1"/>
<rect x="-213.2" y="428.1" class="st0" width="16.7" height="3.1"/>
<rect x="-217.3" y="434.3" class="st0" width="20.9" height="3.1"/>
<rect x="-217.3" y="440.6" class="st0" width="4.2" height="3.1"/>
<rect x="-209" y="440.6" class="st0" width="12.6" height="3.1"/>
<rect x="-213.2" y="446.9" class="st0" width="16.7" height="3.1"/>
<rect x="-232" y="407.6" class="st0" width="6.3" height="6.3"/>
<rect x="-232" y="413.9" class="st0" width="6.3" height="6.3"/>
<rect x="-232" y="420.2" class="st0" width="6.3" height="6.3"/>
<rect x="-232" y="426.5" class="st0" width="6.3" height="6.3"/>
<rect x="-232" y="432.8" class="st0" width="6.3" height="6.3"/>
<rect x="-232" y="439.1" class="st0" width="6.3" height="6.3"/>
<rect x="-232" y="445.3" class="st0" width="6.3" height="6.3"/>
<rect x="-232" y="451.6" class="st0" width="6.3" height="6.3"/>
<path class="st0" d="M-200.1,391.8c-0.3-0.5-0.9-0.9-1.5-0.9h-10.5c0.6,0,1.3,0.4,1.5,0.9l1.6,3.3h2.1h8.4L-200.1,391.8z"/>
<rect x="-196.4" y="395.1" class="st0" width="35.6" height="62.8"/>
<rect x="-178.6" y="437" class="st0" width="13.6" height="16.7"/>
<rect x="-196.4" y="420.2" class="st0" width="13.6" height="33.5"/>
<rect x="-196.4" y="399.3" class="st0" width="31.4" height="16.7"/>
<rect x="-196.4" y="386.7" class="st0" width="35.6" height="8.4"/>
<rect x="-166.6" y="389.3" class="st0" width="3.1" height="3.1"/>
<rect x="-171.8" y="389.3" class="st0" width="3.1" height="3.1"/>
<rect x="-177" y="389.3" class="st0" width="3.1" height="3.1"/>
<path class="st0" d="M-178.6,420.2h13.6H-178.6z"/>
<path class="st0" d="M-178.6,424.4h13.6H-178.6z"/>
<path class="st0" d="M-178.6,428.6h13.6H-178.6z"/>
<path class="st0" d="M-178.6,432.8h13.6H-178.6z"/>
</svg>
