<?xml version="1.0" encoding="utf-8"?>
<!-- Generator: Adobe Illustrator 19.0.0, SVG Export Plug-In . SVG Version: 6.00 Build 0)  -->
<svg version="1.0" id="Layer_1" xmlns="http://www.w3.org/2000/svg" xmlns:xlink="http://www.w3.org/1999/xlink" x="0px" y="0px"
	 viewBox="-247 371.4 100 100" style="enable-background:new -247 371.4 100 100;" xml:space="preserve">
<path d="M-166,439.7v-36.4c0-2-1.6-3.6-3.6-3.6h-14.1c-0.4,0-0.7-0.3-0.7-0.7c0-0.4,0.3-0.7,0.7-0.7h14.1c2.8,0,5.1,2.3,5.1,5.1
	v36.4c0,2.8-2.3,5.1-5.1,5.1h-26.8v10.3h12.9c0.4,0,0.7,0.3,0.7,0.7c0,0.4-0.3,0.7-0.7,0.7h-27.3c-0.4,0-0.7-0.3-0.7-0.7
	c0-0.4,0.3-0.7,0.7-0.7h12.9v-10.4h-26.8c-2.8,0-5.1-2.3-5.1-5.1v-36.3c0-2.8,2.3-5.1,5.1-5.1h14.4c0.4,0,0.7,0.3,0.7,0.7
	c0,0.4-0.3,0.7-0.7,0.7h-14.4c-2,0-3.6,1.6-3.6,3.6v36.4c0,2,1.6,3.6,3.6,3.6h55C-167.6,443.3-166,441.7-166,439.7z M-197.1,419.3
	c0.4,0,0.7-0.3,0.7-0.7v-27.3c0-0.4-0.3-0.7-0.7-0.7c-0.4,0-0.7,0.3-0.7,0.7v27.3C-197.8,418.9-197.5,419.3-197.1,419.3z
	 M-189.6,388v6.1c0,0.1,0,0.1-0.1,0.2c0,0.1,0.1,0.1,0.1,0.2v28.7l0,0c0,0.1,0,0.1-0.1,0.2c0,0,0,0,0,0.1s-0.1,0.1-0.1,0.1l-6.8,8.9
	c-0.1,0.1-0.4,0.3-0.6,0.3c-0.2,0-0.4-0.1-0.6-0.3l-6.8-8.9c0-0.1-0.1-0.1-0.1-0.1c0,0,0,0,0-0.1c0-0.1-0.1-0.1-0.1-0.2l0,0v-28.6
	c0-0.1,0-0.1,0.1-0.3c0-0.1-0.1-0.1-0.1-0.3v-6c0-1.3,1.1-2.4,2.4-2.4h10.2C-190.7,385.6-189.6,386.7-189.6,388z M-203.2,394.1
	c0,0.1,0,0.1-0.1,0.3c0,0.1,0.1,0.1,0.1,0.3v27.9h12.1v-28c0-0.1,0-0.1,0.1-0.2c0-0.1-0.1-0.1-0.1-0.2V388c0-0.5-0.4-0.9-0.9-0.9
	h-10.2c-0.5,0-0.9,0.4-0.9,0.9V394.1z M-191.8,423.9h-10.6l5.3,7L-191.8,423.9z"/>
</svg>
