<?xml version="1.0" encoding="utf-8"?>
<!-- Generator: Adobe Illustrator 19.0.0, SVG Export Plug-In . SVG Version: 6.00 Build 0)  -->
<svg version="1.1" id="Layer_1" xmlns="http://www.w3.org/2000/svg" xmlns:xlink="http://www.w3.org/1999/xlink" x="0px" y="0px"
	 viewBox="-429 218 100 116.3" style="enable-background:new -429 218 100 116.3;" xml:space="preserve">
<style type="text/css">
	.st0{fill:#14344E;}
</style>
<path class="st0" d="M-379.1,329.3c-5.3,0-17.6-13.9-22.7-20.6c-8.1-10.6-17.8-26.9-17.8-44.2c0-22.4,18.2-40.5,40.5-40.5
	c22.4,0,40.5,18.2,40.5,40.5c0,17.2-9.8,33.5-18.1,44.2C-361.6,315.2-374.2,329.3-379.1,329.3z M-379.1,232.3
	c-17.8,0-32.3,14.5-32.3,32.3c0,25.6,25.5,51,32.1,55.9c6.8-5.3,32.4-31.1,32.4-55.9C-346.8,246.8-361.3,232.3-379.1,232.3z
	 M-379.1,282.8c-10.1,0-18.3-8.2-18.3-18.3c0-10.1,8.2-18.3,18.3-18.3c10.1,0,18.3,8.2,18.3,18.3
	C-360.8,274.6-369,282.8-379.1,282.8z M-379.1,254.5c-5.5,0-10,4.5-10,10c0,5.5,4.5,10,10,10c5.5,0,10-4.5,10-10
	C-369,259-373.5,254.5-379.1,254.5z"/>
</svg>
