<?xml version="1.0" encoding="utf-8"?>
<!-- Generator: Adobe Illustrator 19.0.0, SVG Export Plug-In . SVG Version: 6.00 Build 0)  -->
<svg version="1.0" id="Layer_1" xmlns="http://www.w3.org/2000/svg" xmlns:xlink="http://www.w3.org/1999/xlink" x="0px" y="0px"
	 viewBox="-247 371.4 100 100" style="enable-background:new -247 371.4 100 100;" xml:space="preserve">
<style type="text/css">
	.st0{fill:none;stroke:#000000;stroke-miterlimit:10;}
</style>
<path class="st0" d="M-160.5,420.9c0-18.4-14.7-33.4-33-34v1.7c17.5,0.6,31.5,14.8,31.5,32.3c0,15.8-11.5,28.9-26.6,31.7v-3.2
	l-7.8,4.5l7.8,4.5v-4C-172.6,451.5-160.5,437.6-160.5,420.9z"/>
<path class="st0" d="M-197.5,387.9l-7.8-4.5v3.9c-16,2.7-28.2,16.7-28.2,33.5c0,18.4,14.7,33.4,33,34v-1.7
	c-17.5-0.6-31.5-14.8-31.5-32.3c0-15.8,11.5-29,26.7-31.8v3.3L-197.5,387.9z"/>
</svg>
