<?xml version="1.0" encoding="utf-8"?>
<!-- Generator: Adobe Illustrator 19.0.0, SVG Export Plug-In . SVG Version: 6.00 Build 0)  -->
<svg version="1.1" id="Layer_1" xmlns="http://www.w3.org/2000/svg" xmlns:xlink="http://www.w3.org/1999/xlink" x="0px" y="0px"
	 viewBox="-446 239.5 66 66.5" style="enable-background:new -446 239.5 66 66.5;" xml:space="preserve">
<style type="text/css">
	.st0{fill:#14344E;}
</style>
<path class="st0" d="M-384.3,252.1c-1.4-1.4-3.3-2.3-5.3-2.3h-46.8c-4.2,0-7.5,3.3-7.5,7.5v30.5c0,4.2,3.3,7.5,7.5,7.5h46.7
	c4.2,0,7.5-3.3,7.5-7.5v-30.5C-382.1,255.3-382.9,253.5-384.3,252.1z M-387.1,258.8v28.9c0,1.4-1.1,2.5-2.5,2.5h-46.8
	c-1.4,0-2.5-1.1-2.5-2.5v-29l25.9,19.9L-387.1,258.8z M-435.9,254.8h45.7l-22.9,17.6L-435.9,254.8z"/>
</svg>
