<?xml version="1.0" encoding="utf-8"?>
<!-- Generator: Adobe Illustrator 19.0.0, SVG Export Plug-In . SVG Version: 6.00 Build 0)  -->
<svg version="1.0" id="Layer_1" xmlns="http://www.w3.org/2000/svg" xmlns:xlink="http://www.w3.org/1999/xlink" x="0px" y="0px"
	 viewBox="-246.9 371.4 100 100" style="enable-background:new -246.9 371.4 100 100;" xml:space="preserve">
<title>Asset 12</title>
<g>
	<g>
		<path d="M-168.7,407.2h-1.6c-5.3,0-9.6,4.3-9.6,9.7v1.8l-2.6,5.1c-0.3,0.6-0.1,1.4,0.5,1.7c0.2,0.1,0.4,0.2,0.6,0.2h2.4v4.1
			c0.1,2,1.8,3.6,3.8,3.7h0.2v3.4c0,0.9,0.7,1.6,1.6,1.6h8.8c0.9,0,1.6-0.7,1.6-1.6v-7.9c3.1-1.9,5-5.3,5-9v-2.3
			C-158.2,411.9-162.9,407.2-168.7,407.2z M-159.8,420c0,3.2-1.8,6.2-4.6,7.8c-0.3,0.1-0.4,0.4-0.4,0.7v8.3h-8.8v-4.2
			c0-0.4-0.4-0.8-0.8-0.8h-1c-1.2,0-2.1-1-2.2-2.1v-4.8c0-0.4-0.4-0.8-0.8-0.8h-2.6l2.5-4.8c0.1-0.1,0.1-0.3,0.1-0.4v-2
			c0-4.5,3.6-8.1,8.1-8.1h1.6c4.9,0,8.9,4,8.9,8.9V420z"/>
		<path d="M-216.4,418.5v-1.8c0-5.3-4.3-9.7-9.7-9.7h-1.6c-5.8,0-10.5,4.7-10.5,10.5v2.3c-0.1,3.6,1.7,7,4.8,9v7.9
			c0,0.9,0.7,1.6,1.6,1.6h10.4c0.9,0,1.6-0.7,1.6-1.6v-3.2c2,0,3.1-2,3.2-4v-4h2.7c0.4,0,0.9-0.2,1.1-0.6c0.2-0.4,0.2-0.9,0-1.3
			L-216.4,418.5z M-217.5,423.9c-0.4,0-0.8,0.4-0.8,0.8v4.8c0,1-0.5,2.4-1.6,2.4h-0.8c-0.4,0-0.8,0.4-0.8,0.8v4h-10.4v-8.3
			c0-0.3-0.2-0.6-0.4-0.7c-2.8-1.6-4.5-4.6-4.4-7.8v-2.3c0-4.9,4-8.9,8.9-8.9h1.6c4.4,0,8,3.6,8.1,8.1v2c0,0.2,0.1,0.3,0.1,0.5
			l3.3,4.7L-217.5,423.9z"/>
		<path d="M-190.4,395.2h-7.9c-0.4,0-0.8,0.4-0.8,0.8s0.4,0.8,0.8,0.8h7.9c0.4,0,0.8-0.4,0.8-0.8S-190,395.2-190.4,395.2z"/>
		<path d="M-189.5,438.3h-2.4v-0.8c0-0.4-0.4-0.8-0.8-0.8c-0.4,0-0.8,0.4-0.8,0.8v0.8h-1.6v-0.8c0-0.4-0.4-0.8-0.8-0.8
			c-0.4,0-0.8,0.4-0.8,0.8v0.8h-1.6v-0.8c0-0.4-0.4-0.8-0.8-0.8s-0.8,0.4-0.8,0.8v0.8h-1.6v-0.8c0-0.4-0.4-0.8-0.8-0.8
			c-0.4,0-0.8,0.4-0.8,0.8v0.8h-2.4c-0.9,0-1.6,0.7-1.6,1.6V459c0,0.9,0.7,1.6,1.6,1.6h16c0.9,0,1.6-0.7,1.6-1.6v-19.1
			C-187.9,439-188.7,438.3-189.5,438.3z M-203.1,439.9L-203.1,439.9c0,0.4,0.4,0.8,0.8,0.8c0.4,0,0.8-0.4,0.8-0.8l0,0h1.6l0,0
			c0,0.4,0.4,0.8,0.8,0.8s0.8-0.4,0.8-0.8l0,0h1.6l0,0c0,0.4,0.4,0.8,0.8,0.8c0.4,0,0.8-0.4,0.8-0.8l0,0h1.6l0,0
			c0,0.4,0.4,0.8,0.8,0.8c0.4,0,0.8-0.4,0.8-0.8l0,0h2.4v2.4h-16v-2.4H-203.1z M-205.5,459v-15.2h16V459H-205.5z"/>
		<path d="M-203.1,447.1h7.9c0.4,0,0.8-0.4,0.8-0.8c0-0.4-0.4-0.8-0.8-0.8h-7.9c-0.4,0-0.8,0.4-0.8,0.8
			C-203.9,446.7-203.5,447.1-203.1,447.1z"/>
		<path d="M-203.8,449.4c0,0.4,0.4,0.8,0.8,0.8h11.1c0.4,0,0.8-0.4,0.8-0.8s-0.4-0.8-0.8-0.8H-203
			C-203.5,448.6-203.8,449-203.8,449.4z"/>
		<path d="M-191.9,451.8H-203c-0.4,0-0.8,0.4-0.8,0.8s0.4,0.8,0.8,0.8h11.1c0.4,0,0.8-0.4,0.8-0.8S-191.5,451.8-191.9,451.8z"/>
		<path d="M-191.9,455h-11.2c-0.4,0-0.8,0.4-0.8,0.8c0,0.4,0.4,0.8,0.8,0.8h11.2c0.4,0,0.8-0.4,0.8-0.8
			C-191.1,455.4-191.5,455-191.9,455z"/>
		<path d="M-181.9,401.7c0.2-0.3,0.2-0.6,0.1-0.9l-2.8-5.1c1.8-5.4-1.1-11.2-6.5-13c-3.2-1.1-6.6-0.5-9.3,1.5h-0.1
			c-5.6,0-10.1,4.5-10.1,10.1c0,1.9,0.5,3.7,1.5,5.3l-1.8,4.1c-0.2,0.4,0,0.9,0.4,1c0.2,0.1,0.4,0.1,0.6,0l4.2-1.7
			c3.3,1.9,7.4,1.8,10.6-0.2c0.2,0,0.5,0,0.7,0c2.4,0,4.7-0.9,6.6-2.4l5.1,1.5C-182.4,402-182.1,401.9-181.9,401.7z M-200.6,402.8
			c-1.6,0-3.3-0.5-4.6-1.4c-0.2-0.1-0.5-0.2-0.7-0.1l-2.8,1.1l1.2-2.7c0.1-0.3,0.1-0.6-0.1-0.8c-2.6-3.9-1.6-9.2,2.4-11.8
			c0.9-0.6,1.9-1,2.9-1.2c-3.6,4.4-3,10.9,1.4,14.5c1,0.8,2.1,1.4,3.3,1.8C-198.6,402.6-199.6,402.8-200.6,402.8z M-187.8,398.8
			c-0.3-0.1-0.6,0-0.8,0.2c-3.6,3.2-9.1,2.9-12.3-0.7s-2.9-9.1,0.7-12.3c3.6-3.2,9.1-2.9,12.3,0.7c2.2,2.4,2.8,5.9,1.7,8.9
			c-0.1,0.2-0.1,0.5,0,0.7l2,3.7L-187.8,398.8z"/>
		<path d="M-190.4,388.8h-7.9c-0.4,0-0.8,0.4-0.8,0.8s0.4,0.8,0.8,0.8h7.9c0.4,0,0.8-0.4,0.8-0.8S-190,388.8-190.4,388.8z"/>
		<path d="M-190.4,392h-7.9c-0.4,0-0.8,0.4-0.8,0.8c0,0.4,0.4,0.8,0.8,0.8h7.9c0.4,0,0.8-0.4,0.8-0.8
			C-189.6,392.4-190,392-190.4,392z"/>
	</g>
</g>
</svg>
